<svg version="1.1" xmlns="http://www.w3.org/2000/svg" xmlns:xlink="http://www.w3.org/1999/xlink" preserveAspectRatio="xMidYMid meet" viewBox="-0.5 197 641 246"><defs><path d="M0 442.48L640 442.48L640 197.53L0 197.53L0 197.53L0 442.48Z" id="a1GwGNsya4"/><path d="M171.6 289.84L169.1 283.38L147.44 283.38L149.42 289.84L149.42 289.84L171.6 289.84Z" id="agYxhh979"/><path d="M175.26 299.54L172.75 293.08L150.34 293.08L152.32 299.54L152.32 299.54L175.26 299.54Z" id="a1c57yLZT9"/><path d="M212.39 289.84L212.39 283.38L188.9 283.38L188.9 289.84L188.9 289.84L212.39 289.84Z" id="d1ggUNFm0"/><path d="M212.39 299.54L212.39 293.08L188.9 293.08L188.9 299.54L188.9 299.54L212.39 299.54Z" id="d4MnRNumh8"/><path d="M268.48 289.84L268.48 283.38L244.99 283.38L244.99 289.84L244.99 289.84L268.48 289.84Z" id="cuNBMqfrk"/><path d="M268.48 299.54L268.48 293.08L244.99 293.08L244.99 299.54L244.99 299.54L268.48 299.54Z" id="aFM6AOrNM"/><path d="M47.17 289.84L135.75 289.84L137.73 283.38L47.17 283.38L47.17 283.38L47.17 289.84Z" id="c1GqZAi32c"/><path d="M47.17 299.54L132.85 299.54L134.83 293.07L47.17 293.07L47.17 293.07L47.17 299.54Z" id="h12BkbGocn"/><path d="M515.16 294.17C514.52 294.44 513.86 294.58 513.2 294.58C512.16 294.58 511.22 294.4 510.39 294.04C509.55 293.67 508.85 293.18 508.28 292.54C507.71 291.9 507.27 291.16 506.96 290.3C506.66 289.44 506.51 288.51 506.51 287.52C506.51 286.5 506.66 285.56 506.96 284.69C507.27 283.82 507.71 283.06 508.28 282.41C508.85 281.76 509.55 281.25 510.39 280.88C511.22 280.51 512.16 280.33 513.2 280.33C513.9 280.33 514.58 280.44 515.23 280.65C515.89 280.86 516.48 281.16 517.01 281.57C517.53 281.98 517.97 282.48 518.31 283.08C518.66 283.68 518.86 284.36 518.94 285.14C518.66 285.14 516.37 285.14 516.08 285.14C515.9 284.37 515.56 283.8 515.05 283.42C514.55 283.04 513.93 282.85 513.2 282.85C512.53 282.85 511.95 282.98 511.48 283.24C511.01 283.5 510.63 283.85 510.34 284.29C510.05 284.73 509.83 285.23 509.7 285.79C509.57 286.35 509.5 286.93 509.5 287.52C509.5 288.1 509.57 288.65 509.7 289.19C509.83 289.73 510.05 290.22 510.34 290.65C510.63 291.09 511.01 291.43 511.48 291.69C511.95 291.95 512.53 292.08 513.2 292.08C514.19 292.08 514.96 291.83 515.5 291.33C516.04 290.83 516.35 290.1 516.44 289.15C516.24 289.15 515.24 289.15 513.43 289.15L513.43 286.91L519.15 286.91L519.15 294.28L517.24 294.28C517.06 293.35 516.96 292.83 516.94 292.73C516.41 293.42 515.81 293.9 515.16 294.17M501.93 280.95C502.42 281.15 502.84 281.42 503.19 281.76C503.54 282.11 503.8 282.5 503.99 282.95C504.18 283.41 504.27 283.89 504.27 284.41C504.27 285.22 504.1 285.91 503.76 286.49C503.42 287.08 502.87 287.52 502.11 287.83C502.11 287.83 502.11 287.86 502.11 287.87C502.48 287.97 502.79 288.12 503.03 288.33C503.27 288.54 503.46 288.79 503.62 289.08C503.77 289.37 503.88 289.68 503.95 290.02C504.02 290.37 504.07 290.71 504.1 291.05C504.11 291.27 504.12 291.52 504.13 291.82C504.15 292.11 504.17 292.41 504.2 292.71C504.23 293.02 504.28 293.31 504.35 293.58C504.42 293.85 504.53 294.08 504.67 294.28C504.37 294.28 501.97 294.28 501.67 294.28C501.51 293.84 501.41 293.33 501.37 292.73C501.33 292.13 501.27 291.56 501.2 291.01C501.09 290.3 500.88 289.78 500.55 289.45C500.22 289.12 499.68 288.96 498.93 288.96C498.73 288.96 497.73 288.96 495.93 288.96L495.93 294.28L492.93 294.28L492.93 280.66L500.28 280.66L500.28 280.66C501.06 280.72 501.6 280.82 501.93 280.95ZM500.76 286.36C501.1 286.06 501.27 285.56 501.27 284.87C501.27 284.21 501.1 283.73 500.76 283.43C500.41 283.13 499.9 282.98 499.21 282.98C499 282.98 497.9 282.98 495.93 282.98L495.93 286.82L499.21 286.82L499.21 286.82C500.01 286.72 500.53 286.56 500.76 286.36ZM489.81 283.17L482.62 283.17L482.62 286.09L489.22 286.09L489.22 288.42L482.62 288.42L482.62 291.76L489.97 291.76L489.97 294.28L479.63 294.28L479.63 280.65L489.81 280.65L489.81 280.66L489.81 283.17ZM472.76 291.86C473.03 291.81 473.26 291.71 473.47 291.58C473.67 291.44 473.83 291.26 473.96 291.03C474.07 290.8 474.13 290.51 474.13 290.15C474.13 289.45 473.94 288.96 473.54 288.66C473.15 288.36 472.63 288.21 471.98 288.21C471.76 288.21 470.68 288.21 468.72 288.21L468.72 291.95L471.92 291.95L471.92 291.95C472.3 291.93 472.58 291.9 472.76 291.86ZM473.91 280.83C474.44 280.94 474.9 281.13 475.28 281.39C475.66 281.65 475.96 282 476.17 282.43C476.37 282.86 476.48 283.4 476.48 284.03C476.48 284.72 476.33 285.29 476.01 285.75C475.7 286.21 475.24 286.58 474.63 286.87C475.47 287.11 476.1 287.54 476.51 288.14C476.92 288.75 477.13 289.47 477.13 290.33C477.13 291.01 477 291.61 476.73 292.11C476.46 292.61 476.1 293.02 475.65 293.34C475.2 293.66 474.68 293.89 474.11 294.05C473.53 294.2 472.93 294.28 472.32 294.28C471.88 294.28 469.68 294.28 465.72 294.28L465.72 280.65L472.13 280.65L472.13 280.66C472.96 280.69 473.55 280.75 473.91 280.83ZM473.07 285.79C473.41 285.53 473.58 285.12 473.58 284.55C473.58 284.23 473.53 283.97 473.41 283.77C473.3 283.56 473.14 283.4 472.95 283.29C472.76 283.18 472.54 283.1 472.29 283.05C472.04 283.01 471.79 282.98 471.52 282.98C471.34 282.98 470.4 282.98 468.72 282.98L468.72 286.17L471.75 286.17L471.75 286.17C472.4 286.08 472.84 285.96 473.07 285.79ZM459.45 289.79L459.48 289.79L459.48 280.66L462.29 280.66L462.29 294.28L459.29 294.28L453.62 285.16L453.59 285.16L453.59 294.28L450.78 294.28L450.78 280.66L453.76 280.66L453.76 280.66L459.45 289.79ZM445.36 280.95C445.85 281.15 446.27 281.42 446.62 281.76C446.97 282.11 447.24 282.5 447.42 282.95C447.6 283.41 447.69 283.89 447.69 284.41C447.69 285.22 447.53 285.91 447.19 286.49C446.85 287.08 446.3 287.52 445.54 287.83C445.54 287.83 445.54 287.86 445.54 287.87C445.91 287.97 446.21 288.12 446.45 288.33C446.7 288.54 446.89 288.79 447.05 289.08C447.2 289.37 447.31 289.68 447.38 290.02C447.45 290.37 447.5 290.71 447.52 291.05C447.54 291.27 447.55 291.52 447.56 291.82C447.58 292.11 447.6 292.41 447.63 292.71C447.66 293.02 447.71 293.31 447.78 293.58C447.85 293.85 447.96 294.08 448.1 294.28C447.8 294.28 445.4 294.28 445.1 294.28C444.94 293.84 444.83 293.33 444.8 292.73C444.76 292.13 444.7 291.56 444.62 291.01C444.52 290.3 444.31 289.78 443.97 289.45C443.64 289.12 443.1 288.96 442.35 288.96C442.15 288.96 441.15 288.96 439.36 288.96L439.36 294.28L436.36 294.28L436.36 280.66L443.71 280.66L443.71 280.66C444.48 280.72 445.03 280.82 445.36 280.95ZM444.19 286.36C444.53 286.06 444.7 285.56 444.7 284.87C444.7 284.21 444.53 283.73 444.19 283.43C443.84 283.13 443.33 282.98 442.64 282.98C442.42 282.98 441.33 282.98 439.36 282.98L439.36 286.82L442.64 286.82L442.64 286.82C443.44 286.72 443.96 286.56 444.19 286.36ZM431.74 293.24C430.71 294.13 429.29 294.58 427.47 294.58C425.63 294.58 424.2 294.14 423.19 293.25C422.18 292.36 421.67 290.98 421.67 289.12C421.67 288.56 421.67 285.74 421.67 280.65L424.66 280.65C424.66 285.74 424.66 288.56 424.66 289.12C424.66 289.49 424.7 289.85 424.76 290.21C424.82 290.57 424.96 290.88 425.16 291.16C425.36 291.43 425.65 291.65 426.01 291.82C426.37 291.99 426.86 292.08 427.47 292.08C428.54 292.08 429.28 291.84 429.68 291.37C430.09 290.89 430.29 290.14 430.29 289.12C430.29 288.56 430.29 285.74 430.29 280.65L433.29 280.65C433.29 285.74 433.29 288.56 433.29 289.12C433.29 290.97 432.78 292.34 431.74 293.24M428.16 279.13L428.16 276.9L430.73 276.9L430.73 279.13L430.73 279.13L428.16 279.13ZM424.23 279.13L424.23 276.9L426.8 276.9L426.8 279.13L426.8 279.13L424.23 279.13ZM415.55 289.79L415.59 289.79L415.59 280.66L418.39 280.66L418.39 294.28L415.4 294.28L409.73 285.16L409.69 285.16L409.69 294.28L406.89 294.28L406.89 280.66L409.87 280.66L409.87 280.66L415.55 289.79ZM397.71 290.23L397.71 287.9L403.45 287.9L403.45 290.23L403.45 290.23L397.71 290.23ZM391.47 289.79L391.51 289.79L391.51 280.66L394.31 280.66L394.31 294.28L391.31 294.28L385.65 285.16L385.61 285.16L385.61 294.28L382.81 294.28L382.81 280.66L385.78 280.66L385.78 280.66L391.47 289.79ZM379.68 283.17L372.49 283.17L372.49 286.09L379.09 286.09L379.09 288.42L372.49 288.42L372.49 291.76L379.84 291.76L379.84 294.28L369.5 294.28L369.5 280.65L379.68 280.65L379.68 280.66L379.68 283.17ZM362.57 294.17C361.92 294.44 361.27 294.58 360.61 294.58C359.56 294.58 358.63 294.4 357.79 294.04C356.96 293.67 356.26 293.18 355.68 292.54C355.11 291.9 354.68 291.16 354.37 290.3C354.07 289.44 353.91 288.51 353.91 287.52C353.91 286.5 354.07 285.56 354.37 284.69C354.68 283.82 355.11 283.06 355.68 282.41C356.26 281.76 356.96 281.25 357.79 280.88C358.63 280.51 359.56 280.33 360.61 280.33C361.31 280.33 361.98 280.44 362.64 280.65C363.29 280.86 363.89 281.16 364.41 281.57C364.94 281.98 365.37 282.48 365.72 283.08C366.06 283.68 366.27 284.36 366.35 285.14C366.06 285.14 363.77 285.14 363.49 285.14C363.31 284.37 362.97 283.8 362.46 283.42C361.95 283.04 361.33 282.85 360.61 282.85C359.93 282.85 359.36 282.98 358.89 283.24C358.42 283.5 358.04 283.85 357.75 284.29C357.45 284.73 357.24 285.23 357.11 285.79C356.97 286.35 356.91 286.93 356.91 287.52C356.91 288.1 356.97 288.65 357.11 289.19C357.24 289.73 357.45 290.22 357.75 290.65C358.04 291.09 358.42 291.43 358.89 291.69C359.36 291.95 359.93 292.08 360.61 292.08C361.6 292.08 362.36 291.83 362.91 291.33C363.45 290.83 363.76 290.1 363.85 289.15C363.65 289.15 362.64 289.15 360.84 289.15L360.84 286.91L366.56 286.91L366.56 294.28L364.65 294.28C364.47 293.35 364.37 292.83 364.34 292.73C363.81 293.42 363.22 293.9 362.57 294.17M348.57 289.79L348.61 289.79L348.61 280.66L351.41 280.66L351.41 294.28L348.42 294.28L342.75 285.16L342.71 285.16L342.71 294.28L339.91 294.28L339.91 280.66L342.88 280.66L342.88 280.66L348.57 289.79ZM338.21 294.28L335.1 294.28L334.08 291.24L328.98 291.24L327.91 294.28L324.9 294.28L330.05 280.66L333.12 280.66L333.12 280.66L338.21 294.28ZM331.57 284.01L331.54 284.01L329.76 289.01L333.29 289.01L333.29 289.01L331.57 284.01ZM317.02 291.76L323.66 291.76L323.66 294.28L314.02 294.28L314.02 280.65L317.02 280.65L317.02 280.66L317.02 291.76ZM308.98 280.95C309.47 281.15 309.89 281.42 310.24 281.76C310.59 282.11 310.86 282.5 311.04 282.95C311.23 283.41 311.32 283.89 311.32 284.41C311.32 285.22 311.15 285.91 310.81 286.49C310.48 287.08 309.92 287.52 309.16 287.83C309.16 287.83 309.16 287.86 309.16 287.87C309.53 287.97 309.84 288.12 310.08 288.33C310.32 288.54 310.52 288.79 310.67 289.08C310.82 289.37 310.93 289.68 311 290.02C311.07 290.37 311.12 290.71 311.15 291.05C311.16 291.27 311.17 291.52 311.18 291.82C311.2 292.11 311.22 292.41 311.25 292.71C311.28 293.02 311.33 293.31 311.4 293.58C311.47 293.85 311.58 294.08 311.72 294.28C311.42 294.28 309.02 294.28 308.72 294.28C308.56 293.84 308.46 293.33 308.42 292.73C308.38 292.13 308.32 291.56 308.25 291.01C308.15 290.3 307.93 289.78 307.6 289.45C307.27 289.12 306.73 288.96 305.98 288.96C305.78 288.96 304.78 288.96 302.98 288.96L302.98 294.28L299.99 294.28L299.99 280.66L307.33 280.66L307.33 280.66C308.11 280.72 308.66 280.82 308.98 280.95ZM307.81 286.36C308.15 286.06 308.32 285.56 308.32 284.87C308.32 284.21 308.15 283.73 307.81 283.43C307.46 283.13 306.95 282.98 306.26 282.98C306.04 282.98 304.95 282.98 302.98 282.98L302.98 286.82L306.26 286.82L306.26 286.82C307.06 286.72 307.58 286.56 307.81 286.36ZM297.05 283.17L289.86 283.17L289.86 286.09L296.46 286.09L296.46 288.42L289.86 288.42L289.86 291.76L297.21 291.76L297.21 294.28L286.87 294.28L286.87 280.65L297.05 280.65L297.05 280.66L297.05 283.17Z" id="b4WMH2Ad0u"/><path d="M406.42 262.97L417.58 262.97L417.58 265.49L413.49 265.49L413.49 276.59L410.5 276.59L410.5 265.49L406.42 265.49L406.42 265.49L406.42 262.97ZM406.7 276.59L403.59 276.59L402.56 273.56L397.47 273.56L396.4 276.59L393.39 276.59L398.54 262.97L401.61 262.97L401.61 262.97L406.7 276.59ZM400.06 266.33L400.03 266.33L398.25 271.32L401.78 271.32L401.78 271.32L400.06 266.33ZM400.71 261.44L400.71 259.21L403.29 259.21L403.29 261.44L403.29 261.44L400.71 261.44ZM396.78 261.44L396.78 259.21L399.36 259.21L399.36 261.44L399.36 261.44L396.78 261.44ZM382.44 262.97L393.6 262.97L393.6 265.49L389.51 265.49L389.51 276.59L386.52 276.59L386.52 265.49L382.44 265.49L382.44 265.49L382.44 262.97ZM377.04 276.59L377.04 262.97L380.03 262.97L380.03 276.59L380.03 276.59L377.04 276.59ZM366.11 273.23C366.27 273.55 366.49 273.81 366.77 274C367.04 274.2 367.36 274.35 367.73 274.44C368.1 274.54 368.48 274.59 368.87 274.59C369.14 274.59 369.43 274.57 369.73 274.52C370.04 274.48 370.32 274.39 370.59 274.26C370.86 274.13 371.08 273.96 371.26 273.74C371.44 273.52 371.52 273.23 371.52 272.89C371.52 272.52 371.41 272.22 371.17 271.99C370.93 271.76 370.63 271.57 370.25 271.42C369.87 271.27 369.43 271.13 368.95 271.02C368.46 270.91 367.98 270.78 367.48 270.64C366.97 270.51 366.47 270.35 365.99 270.17C365.51 269.99 365.08 269.75 364.69 269.45C364.31 269.16 364 268.8 363.77 268.36C363.53 267.92 363.42 267.39 363.42 266.77C363.42 266.07 363.56 265.46 363.86 264.95C364.16 264.43 364.55 264 365.04 263.66C365.52 263.31 366.07 263.06 366.68 262.89C367.29 262.73 367.9 262.65 368.51 262.65C369.22 262.65 369.9 262.73 370.56 262.88C371.21 263.04 371.8 263.3 372.3 263.66C372.81 264.01 373.22 264.47 373.52 265.02C373.82 265.57 373.96 266.25 373.96 267.03C373.67 267.03 371.35 267.03 371.06 267.03C371.04 266.63 370.95 266.29 370.81 266.02C370.66 265.76 370.46 265.55 370.22 265.39C369.98 265.24 369.7 265.13 369.39 265.07C369.08 265.01 368.74 264.97 368.37 264.97C368.13 264.97 367.89 265 367.65 265.05C367.41 265.1 367.19 265.19 366.99 265.32C366.79 265.45 366.63 265.6 366.51 265.8C366.38 265.99 366.31 266.23 366.31 266.52C366.31 266.79 366.36 267 366.46 267.17C366.57 267.33 366.77 267.49 367.07 267.63C367.36 267.77 367.78 267.91 368.3 268.05C368.83 268.19 369.52 268.36 370.38 268.58C370.63 268.63 370.98 268.72 371.44 268.86C371.88 268.99 372.34 269.2 372.78 269.49C373.22 269.79 373.61 270.18 373.94 270.67C374.26 271.16 374.42 271.78 374.42 272.55C374.42 273.17 374.3 273.75 374.06 274.28C373.82 274.82 373.46 275.28 372.98 275.67C372.5 276.06 371.91 276.36 371.21 276.57C370.5 276.79 369.68 276.9 368.76 276.9C368.01 276.9 367.28 276.8 366.57 276.62C365.87 276.44 365.24 276.15 364.7 275.75C364.16 275.36 363.73 274.86 363.42 274.25C363.1 273.64 362.94 272.91 362.96 272.07C363.25 272.07 365.57 272.07 365.86 272.07C365.86 272.52 365.94 272.91 366.11 273.23M358.49 263.26C358.98 263.46 359.4 263.73 359.75 264.07C360.09 264.42 360.36 264.82 360.55 265.27C360.73 265.72 360.82 266.2 360.82 266.73C360.82 267.53 360.66 268.22 360.32 268.8C359.98 269.39 359.43 269.84 358.67 270.14C358.67 270.14 358.67 270.18 358.67 270.18C359.04 270.28 359.34 270.44 359.58 270.65C359.83 270.86 360.02 271.1 360.18 271.39C360.33 271.68 360.44 271.99 360.51 272.34C360.58 272.68 360.63 273.02 360.65 273.36C360.67 273.58 360.68 273.83 360.69 274.13C360.71 274.42 360.73 274.72 360.76 275.02C360.79 275.33 360.84 275.62 360.91 275.89C360.98 276.17 361.08 276.4 361.23 276.59C360.93 276.59 358.53 276.59 358.23 276.59C358.06 276.16 357.96 275.64 357.93 275.04C357.89 274.45 357.83 273.87 357.75 273.33C357.65 272.61 357.44 272.09 357.11 271.76C356.77 271.43 356.23 271.27 355.48 271.27C355.28 271.27 354.28 271.27 352.49 271.27L352.49 276.59L349.49 276.59L349.49 262.97L356.84 262.97L356.84 262.97C357.61 263.03 358.16 263.13 358.49 263.26ZM357.31 268.67C357.66 268.37 357.83 267.87 357.83 267.18C357.83 266.52 357.66 266.04 357.31 265.74C356.97 265.44 356.46 265.29 355.77 265.29C355.55 265.29 354.46 265.29 352.49 265.29L352.49 269.13L355.77 269.13L355.77 269.13C356.57 269.03 357.09 268.88 357.31 268.67ZM346.56 265.49L339.37 265.49L339.37 268.4L345.97 268.4L345.97 270.73L339.37 270.73L339.37 274.07L346.71 274.07L346.71 276.59L336.38 276.59L336.38 262.97L346.56 262.97L346.56 262.97L346.56 265.49ZM321.86 262.97L324.93 262.97L327.96 272.54L328 272.54L331.07 262.97L334.16 262.97L329.64 276.59L326.26 276.59L326.26 276.59L321.86 262.97ZM316.7 276.59L316.7 262.97L319.7 262.97L319.7 276.59L319.7 276.59L316.7 276.59ZM310.52 272.11L310.56 272.11L310.56 262.97L313.36 262.97L313.36 276.59L310.37 276.59L304.7 267.47L304.66 267.47L304.66 276.59L301.86 276.59L301.86 262.97L304.84 262.97L304.84 262.97L310.52 272.11ZM296.94 275.55C295.91 276.44 294.48 276.89 292.67 276.89C290.82 276.89 289.39 276.45 288.38 275.56C287.37 274.67 286.87 273.29 286.87 271.44C286.87 270.87 286.87 268.05 286.87 262.97L289.86 262.97C289.86 268.05 289.86 270.87 289.86 271.44C289.86 271.81 289.89 272.17 289.96 272.53C290.02 272.88 290.15 273.2 290.36 273.47C290.56 273.74 290.84 273.97 291.21 274.14C291.57 274.31 292.06 274.4 292.67 274.4C293.73 274.4 294.47 274.16 294.88 273.68C295.29 273.2 295.49 272.46 295.49 271.44C295.49 270.87 295.49 268.05 295.49 262.97L298.48 262.97C298.48 268.05 298.48 270.87 298.48 271.44C298.48 273.28 297.97 274.65 296.94 275.55" id="aktBkWFJH"/><path d="M524.95 245.15C525.44 245.35 525.86 245.62 526.21 245.96C526.56 246.31 526.82 246.7 527.01 247.15C527.19 247.61 527.28 248.09 527.28 248.61C527.28 249.42 527.12 250.11 526.78 250.69C526.44 251.28 525.89 251.72 525.13 252.03C525.13 252.03 525.13 252.06 525.13 252.07C525.5 252.17 525.8 252.32 526.04 252.53C526.29 252.74 526.48 252.99 526.64 253.28C526.79 253.56 526.9 253.88 526.97 254.22C527.04 254.57 527.09 254.91 527.11 255.25C527.13 255.47 527.14 255.72 527.15 256.01C527.17 256.31 527.19 256.61 527.22 256.91C527.25 257.22 527.3 257.51 527.37 257.78C527.44 258.05 527.55 258.29 527.69 258.48C527.39 258.48 524.99 258.48 524.69 258.48C524.53 258.04 524.43 257.53 524.39 256.93C524.35 256.33 524.29 255.76 524.21 255.21C524.11 254.5 523.9 253.98 523.56 253.65C523.24 253.32 522.69 253.15 521.94 253.15C521.74 253.15 520.75 253.15 518.95 253.15L518.95 258.48L515.95 258.48L515.95 244.85L523.3 244.85L523.3 244.86C524.07 244.92 524.62 245.02 524.95 245.15ZM523.78 250.56C524.12 250.25 524.29 249.76 524.29 249.07C524.29 248.41 524.12 247.93 523.78 247.63C523.43 247.33 522.92 247.18 522.23 247.18C522.01 247.18 520.92 247.18 518.95 247.18L518.95 251.02L522.23 251.02L522.23 251.02C523.03 250.92 523.55 250.76 523.78 250.56ZM513.12 247.37L505.93 247.37L505.93 250.29L512.53 250.29L512.53 252.62L505.93 252.62L505.93 255.96L513.27 255.96L513.27 258.48L502.93 258.48L502.93 244.85L513.12 244.85L513.12 244.86L513.12 247.37ZM496.74 245.27C497.5 245.55 498.15 245.97 498.7 246.53C499.26 247.09 499.69 247.79 500 248.63C500.31 249.47 500.47 250.46 500.47 251.59C500.47 252.58 500.34 253.5 500.09 254.33C499.83 255.17 499.45 255.9 498.94 256.51C498.42 257.12 497.78 257.6 497.01 257.95C496.24 258.3 495.33 258.48 494.29 258.48C493.9 258.48 491.94 258.48 488.41 258.48L488.41 244.86L494.29 244.86L494.29 244.86C495.42 244.95 496.24 245.09 496.74 245.27ZM495.34 255.75C495.74 255.61 496.11 255.38 496.43 255.05C496.74 254.73 497 254.31 497.19 253.79C497.38 253.26 497.47 252.63 497.47 251.88C497.47 251.19 497.41 250.57 497.27 250.02C497.14 249.47 496.92 248.99 496.61 248.6C496.31 248.2 495.91 247.9 495.4 247.69C494.9 247.48 494.28 247.37 493.54 247.37C493.4 247.37 492.69 247.37 491.41 247.37L491.41 255.96L494.08 255.96L494.08 255.96C494.65 255.91 495.07 255.84 495.34 255.75ZM482.37 253.99L482.4 253.99L482.4 244.86L485.21 244.86L485.21 258.48L482.21 258.48L476.55 249.36L476.51 249.36L476.51 258.48L473.71 258.48L473.71 244.86L476.68 244.86L476.68 244.86L482.37 253.99ZM471.93 258.48L468.82 258.48L467.79 255.44L462.7 255.44L461.63 258.48L458.61 258.48L463.76 244.86L466.83 244.86L466.83 244.86L471.93 258.48ZM465.29 248.21L465.25 248.21L463.48 253.21L467.01 253.21L467.01 253.21L465.29 248.21ZM448.41 244.86L451.08 249.2L453.84 244.86L457.12 244.86L452.76 251.36L457.51 258.48L453.94 258.48L450.97 253.76L447.93 258.48L444.58 258.48L449.33 251.34L444.93 244.86L444.93 244.86L448.41 244.86ZM442.63 247.37L435.44 247.37L435.44 250.29L442.04 250.29L442.04 252.62L435.44 252.62L435.44 255.96L442.78 255.96L442.78 258.48L432.44 258.48L432.44 244.85L442.63 244.85L442.63 244.86L442.63 247.37ZM423.41 255.96L430.04 255.96L430.04 258.48L420.41 258.48L420.41 244.85L423.41 244.85L423.41 244.86L423.41 255.96ZM418.35 258.48L415.24 258.48L414.21 255.44L409.11 255.44L408.05 258.48L405.03 258.48L410.18 244.86L413.25 244.86L413.25 244.86L418.35 258.48ZM411.71 248.21L411.67 248.21L409.9 253.21L413.42 253.21L413.42 253.21L411.71 248.21ZM397.85 254.43L397.85 252.1L403.59 252.1L403.59 254.43L403.59 254.43L397.85 254.43ZM385.95 250.08L391.46 250.08L391.46 244.86L394.45 244.86L394.45 258.48L391.46 258.48L391.46 252.6L385.95 252.6L385.95 258.48L382.95 258.48L382.95 244.86L385.95 244.86L385.95 244.86L385.95 250.08ZM376.85 248.49C376.67 248.2 376.45 247.95 376.18 247.74C375.91 247.52 375.61 247.35 375.28 247.23C374.94 247.11 374.59 247.05 374.22 247.05C373.54 247.05 372.97 247.18 372.5 247.44C372.03 247.7 371.65 248.05 371.36 248.49C371.06 248.93 370.85 249.43 370.72 249.99C370.58 250.55 370.52 251.13 370.52 251.72C370.52 252.3 370.58 252.85 370.72 253.39C370.85 253.93 371.06 254.42 371.36 254.85C371.65 255.29 372.03 255.63 372.5 255.89C372.97 256.15 373.54 256.28 374.22 256.28C375.13 256.28 375.85 256 376.36 255.44C376.88 254.88 377.19 254.15 377.31 253.23C377.6 253.23 379.92 253.23 380.21 253.23C380.13 254.08 379.93 254.85 379.62 255.54C379.3 256.23 378.88 256.81 378.36 257.29C377.84 257.78 377.23 258.15 376.53 258.4C375.83 258.65 375.06 258.78 374.22 258.78C373.18 258.78 372.24 258.6 371.41 258.24C370.57 257.88 369.87 257.38 369.3 256.74C368.73 256.11 368.29 255.36 367.98 254.5C367.68 253.64 367.52 252.72 367.52 251.72C367.52 250.71 367.68 249.76 367.98 248.89C368.29 248.02 368.73 247.26 369.3 246.61C369.87 245.96 370.57 245.46 371.41 245.09C372.24 244.72 373.18 244.53 374.22 244.53C374.97 244.53 375.68 244.64 376.35 244.86C377.01 245.07 377.61 245.39 378.14 245.8C378.67 246.22 379.1 246.73 379.45 247.34C379.79 247.95 380 248.65 380.09 249.44C379.8 249.44 377.48 249.44 377.19 249.44C377.14 249.09 377.03 248.78 376.85 248.49M361.9 258.48L361.9 244.86L364.89 244.86L364.89 258.48L364.89 258.48L361.9 258.48ZM356.54 245.15C357.03 245.35 357.45 245.62 357.8 245.96C358.15 246.31 358.42 246.7 358.6 247.15C358.78 247.61 358.88 248.09 358.88 248.61C358.88 249.42 358.71 250.11 358.37 250.69C358.04 251.28 357.48 251.72 356.72 252.03C356.72 252.03 356.72 252.06 356.72 252.07C357.09 252.17 357.4 252.32 357.64 252.53C357.88 252.74 358.08 252.99 358.23 253.28C358.38 253.56 358.49 253.88 358.56 254.22C358.63 254.57 358.68 254.91 358.71 255.25C358.72 255.47 358.73 255.72 358.74 256.01C358.76 256.31 358.78 256.61 358.81 256.91C358.84 257.22 358.89 257.51 358.96 257.78C359.03 258.05 359.14 258.29 359.28 258.48C358.98 258.48 356.59 258.48 356.29 258.48C356.12 258.04 356.02 257.53 355.98 256.93C355.94 256.33 355.88 255.76 355.81 255.21C355.71 254.5 355.49 253.98 355.16 253.65C354.83 253.32 354.29 253.15 353.54 253.15C353.34 253.15 352.34 253.15 350.54 253.15L350.54 258.48L347.55 258.48L347.55 244.85L354.89 244.85L354.89 244.86C355.67 244.92 356.22 245.02 356.54 245.15ZM355.37 250.56C355.71 250.25 355.88 249.76 355.88 249.07C355.88 248.41 355.71 247.93 355.37 247.63C355.03 247.33 354.51 247.18 353.83 247.18C353.61 247.18 352.51 247.18 350.54 247.18L350.54 251.02L353.83 251.02L353.83 251.02C354.63 250.92 355.14 250.76 355.37 250.56ZM341.39 245.27C342.14 245.55 342.8 245.97 343.35 246.53C343.9 247.09 344.34 247.79 344.65 248.63C344.96 249.47 345.11 250.46 345.11 251.59C345.11 252.58 344.99 253.5 344.73 254.33C344.48 255.17 344.1 255.9 343.58 256.51C343.07 257.12 342.42 257.6 341.65 257.95C340.88 258.3 339.98 258.48 338.94 258.48C338.54 258.48 336.59 258.48 333.06 258.48L333.06 244.86L338.94 244.86L338.94 244.86C340.07 244.95 340.88 245.09 341.39 245.27ZM339.99 255.75C340.39 255.61 340.76 255.38 341.07 255.05C341.39 254.73 341.65 254.31 341.84 253.79C342.03 253.26 342.12 252.63 342.12 251.88C342.12 251.19 342.06 250.57 341.92 250.02C341.79 249.47 341.57 248.99 341.26 248.6C340.96 248.2 340.55 247.9 340.05 247.69C339.55 247.48 338.93 247.37 338.19 247.37C338.05 247.37 337.34 247.37 336.06 247.37L336.06 255.96L338.73 255.96L338.73 255.96C339.3 255.91 339.72 255.84 339.99 255.75ZM330.13 247.37L322.94 247.37L322.94 250.29L329.54 250.29L329.54 252.62L322.94 252.62L322.94 255.96L330.28 255.96L330.28 258.48L319.94 258.48L319.94 244.85L330.13 244.85L330.13 244.86L330.13 247.37ZM313.51 258.48L313.51 244.86L316.51 244.86L316.51 258.48L316.51 258.48L313.51 258.48ZM307.87 245.15C308.36 245.35 308.78 245.62 309.13 245.96C309.48 246.31 309.75 246.7 309.93 247.15C310.12 247.61 310.21 248.09 310.21 248.61C310.21 249.42 310.04 250.11 309.7 250.69C309.36 251.28 308.82 251.72 308.05 252.03C308.05 252.03 308.05 252.06 308.05 252.07C308.42 252.17 308.73 252.32 308.97 252.53C309.21 252.74 309.41 252.99 309.56 253.28C309.71 253.56 309.82 253.88 309.89 254.22C309.96 254.57 310.01 254.91 310.04 255.25C310.05 255.47 310.06 255.72 310.07 256.01C310.09 256.31 310.11 256.61 310.14 256.91C310.17 257.22 310.22 257.51 310.29 257.78C310.36 258.05 310.47 258.29 310.61 258.48C310.31 258.48 307.91 258.48 307.61 258.48C307.45 258.04 307.35 257.53 307.31 256.93C307.27 256.33 307.21 255.76 307.14 255.21C307.03 254.5 306.82 253.98 306.49 253.65C306.16 253.32 305.62 253.15 304.87 253.15C304.67 253.15 303.67 253.15 301.87 253.15L301.87 258.48L298.88 258.48L298.88 244.85L306.22 244.85L306.22 244.86C306.99 244.92 307.54 245.02 307.87 245.15ZM306.7 250.56C307.04 250.25 307.21 249.76 307.21 249.07C307.21 248.41 307.04 247.93 306.7 247.63C306.35 247.33 305.84 247.18 305.15 247.18C304.93 247.18 303.84 247.18 301.87 247.18L301.87 251.02L305.15 251.02L305.15 251.02C305.95 250.92 306.47 250.76 306.7 250.56ZM296.44 247.37L289.86 247.37L289.86 250.52L295.57 250.52L295.57 252.85L289.86 252.85L289.86 258.48L286.87 258.48L286.87 244.85L296.44 244.85L296.44 244.86L296.44 247.37Z" id="a2MvzDZTEU"/><path d="M257.02 331.91C222.95 331.91 204.02 331.91 200.23 331.91C203.72 334.76 207.76 336.9 212.04 338.38C215.35 338.38 241.87 338.38 245.19 338.38C249.48 336.9 253.53 334.76 257.02 331.91" id="b1kVTPj3Uk"/><path d="M123.59 328.67L123.63 328.55L123.56 328.55L125.6 322.2L101.43 322.2L98.98 328.67L98.98 328.67L123.59 328.67Z" id="c5AJ2MjOK"/><path d="M160.53 260.71L158.02 254.24L126.48 254.24L124.03 260.71L124.03 260.71L160.53 260.71Z" id="c6PP6Ti8FU"/><path d="M164.19 270.43L161.68 263.96L122.9 263.96L120.45 270.43L141.43 270.43L142.34 267.46L142.61 267.46L143.52 270.43L143.52 270.43L164.19 270.43Z" id="c17M5cC5jl"/><path d="M167.85 280.13L165.34 273.66L144.43 273.66L146.42 280.13L146.42 280.13L167.85 280.13Z" id="d7hEzKgff"/><path d="M178.83 309.26L176.32 302.79L108.59 302.79L106.13 309.26L106.13 309.26L178.83 309.26Z" id="a1hl59gS8m"/><path d="M182.49 318.97L179.99 312.5L105.01 312.5L102.56 318.97L102.56 318.97L182.49 318.97Z" id="a24dFQwVLG"/><path d="M186.16 328.67L183.65 322.2L159.39 322.2L161.56 328.67L161.56 328.67L186.16 328.67Z" id="c1qbzd4YWh"/><path d="M212.33 260.71L212.33 254.24L188.82 254.24L188.82 260.71L188.82 260.71L212.33 260.71Z" id="a4cVNoqZEC"/><path d="M212.33 270.43L212.33 263.96L188.82 263.96L188.82 270.43L188.82 270.43L212.33 270.43Z" id="abKCkSgps"/><path d="M212.33 280.13L212.33 273.66L188.82 273.66L188.82 280.13L188.82 280.13L212.33 280.13Z" id="d63bp7fSaW"/><path d="M189.01 309.26C203.26 309.26 211.18 309.26 212.77 309.26C212.47 307.59 212.32 305.8 212.32 303.91C212.32 303.84 212.32 303.47 212.32 302.79L188.82 302.79C188.82 304.62 188.82 305.64 188.82 305.84C188.82 307.03 188.92 308.15 189.01 309.26" id="h5xHjBRNc"/><path d="M191.11 318.97C207.2 318.97 216.13 318.97 217.92 318.97C215.83 317.34 214.41 315.13 213.53 312.5C211.11 312.5 191.81 312.5 189.4 312.5C189.78 314.8 190.34 316.98 191.11 318.97" id="a3rmXq9sDs"/><path d="M264.82 322.2C221.4 322.2 197.27 322.2 192.44 322.2C193.71 324.62 195.26 326.76 197.03 328.67C203.35 328.67 253.91 328.67 260.23 328.67C262 326.76 263.56 324.62 264.82 322.2" id="b3Cb3rBeFZ"/><path d="M268.45 260.71L268.45 254.24L244.94 254.24L244.94 260.71L244.94 260.71L268.45 260.71Z" id="a8eWTikc1"/><path d="M268.45 270.43L268.45 263.96L244.94 263.96L244.94 270.43L244.94 270.43L268.45 270.43Z" id="cClJ8t7mM"/><path d="M268.45 280.13L268.45 273.66L244.94 273.66L244.94 280.13L244.94 280.13L268.45 280.13Z" id="b1m6OMtx17"/><path d="M268.45 305.84L268.45 302.79L244.94 302.79C244.94 303.47 244.94 303.84 244.94 303.91C244.94 305.8 244.8 307.59 244.5 309.26C246.88 309.26 265.88 309.26 268.26 309.26C268.35 308.15 268.45 307.03 268.45 305.84" id="anvGDXh0v"/><path d="M268.45 251L268.45 244.53L244.94 244.53L244.94 251L244.94 251L268.45 251Z" id="bwOL9sMLH"/><path d="M267.88 312.5C253.39 312.5 245.35 312.5 243.74 312.5C242.85 315.13 241.42 317.34 239.32 318.97C242.01 318.97 263.47 318.97 266.16 318.97C266.93 316.98 267.48 314.8 267.88 312.5" id="bhidZmkFH"/><path d="M212.33 251L212.33 244.53L188.82 244.53L188.82 251L188.82 251L212.33 251Z" id="b382R5uPJ4"/><path d="M164.6 338.38L189.81 338.38L187.31 331.91L162.47 331.91L162.47 331.91L164.6 338.38Z" id="eCAuMl9TA"/><path d="M156.87 251L154.36 244.53L130.06 244.53L127.61 251L127.61 251L156.87 251Z" id="fFvcvWK6J"/><path d="M119.33 273.66L116.87 280.13L138.53 280.13L140.52 273.66L140.52 273.66L119.33 273.66Z" id="da74PUyqt"/><path d="M118.84 260.71L118.84 254.24L47.01 254.24L47.01 260.71L47.01 260.71L118.84 260.71Z" id="au1fQ7nrm"/><path d="M118.84 251L118.84 244.53L47.01 244.53L47.01 251L47.01 251L118.84 251Z" id="dLLiNbSTp"/><path d="M47.01 263.94L47.01 270.41L70.51 270.41L70.51 263.94L70.51 263.94L47.01 263.94Z" id="dgHhMuyNN"/><path d="M47.01 273.66L47.01 280.13L70.51 280.13L70.51 273.66L70.51 273.66L47.01 273.66Z" id="c6N5matZy"/><path d="M47.01 302.79L47.01 309.26L70.51 309.26L70.51 302.79L70.51 302.79L47.01 302.79Z" id="b1jGgcOQ8"/><path d="M47.01 312.5L47.01 318.97L70.51 318.97L70.51 312.5L70.51 312.5L47.01 312.5Z" id="c2bsl7KvA"/><path d="M47.01 322.2L47.01 328.67L70.51 328.67L70.51 322.2L70.51 322.2L47.01 322.2Z" id="c1niQrl7sh"/><path d="M70.51 338.38L70.51 331.91L47.01 331.91L47.01 338.38L47.01 338.38L70.51 338.38Z" id="edd9uuWDx"/><path d="M95.4 338.38L120.48 338.38L122.61 331.91L97.85 331.91L97.85 331.91L95.4 338.38Z" id="aGjoQ5Mbw"/><path d="M295.5 322.54C295.5 327.63 295.5 330.45 295.5 331.02C295.5 332.04 295.3 332.78 294.89 333.26C294.48 333.74 293.74 333.98 292.67 333.98C292.06 333.98 291.58 333.9 291.21 333.73C290.85 333.57 290.57 333.34 290.36 333.06C290.16 332.78 290.02 332.46 289.96 332.11C289.9 331.75 289.87 331.39 289.87 331.02C289.87 330.45 289.87 327.63 289.87 322.54L286.87 322.54C286.87 327.63 286.87 330.45 286.87 331.02C286.87 332.88 287.37 334.26 288.39 335.15C289.4 336.05 290.83 336.5 292.67 336.5C294.49 336.5 295.92 336.05 296.95 335.15C297.98 334.24 298.5 332.87 298.5 331.02C298.5 330.46 298.5 327.63 298.5 322.54L298.5 322.54L295.5 322.54ZM304.34 336.17L304.34 327.05L304.38 327.05L310.05 336.17L313.05 336.17L313.05 322.54L310.24 322.54L310.24 331.69L310.2 331.69L304.51 322.54L301.53 322.54L301.53 336.17L301.53 336.17L304.34 336.17ZM321.29 325.06C322.03 325.06 322.65 325.16 323.16 325.37C323.66 325.58 324.06 325.89 324.37 326.28C324.68 326.68 324.9 327.15 325.03 327.7C325.16 328.26 325.23 328.88 325.23 329.57C325.23 330.32 325.13 330.95 324.94 331.48C324.75 332 324.5 332.42 324.18 332.75C323.86 333.07 323.5 333.3 323.09 333.44C322.68 333.59 322.26 333.65 321.83 333.65C321.65 333.65 320.76 333.65 319.16 333.65L319.16 325.06L319.16 325.06C320.44 325.06 321.15 325.06 321.29 325.06ZM322.04 336.17C323.08 336.17 323.99 336 324.76 335.65C325.53 335.3 326.17 334.82 326.69 334.21C327.21 333.6 327.59 332.87 327.85 332.03C328.1 331.19 328.23 330.27 328.23 329.28C328.23 328.15 328.07 327.16 327.76 326.32C327.45 325.48 327.02 324.78 326.46 324.22C325.91 323.66 325.25 323.24 324.49 322.96C323.74 322.68 322.92 322.54 322.04 322.54C321.65 322.54 319.69 322.54 316.16 322.54L316.16 336.17L316.16 336.17C319.69 336.17 321.65 336.17 322.04 336.17ZM335.99 333.82C336.31 334.44 336.75 334.94 337.28 335.33C337.82 335.73 338.44 336.02 339.14 336.21C339.85 336.4 340.58 336.5 341.33 336.5C342.26 336.5 343.08 336.39 343.79 336.17C344.49 335.94 345.08 335.64 345.56 335.25C346.04 334.86 346.4 334.4 346.64 333.87C346.88 333.33 347 332.75 347 332.13C347 331.62 346.92 331.17 346.77 330.78C346.62 330.39 346.42 330.06 346.17 329.78C345.92 329.5 345.65 329.26 345.35 329.07C345.05 328.88 344.75 328.72 344.45 328.6C344.15 328.48 343.87 328.38 343.6 328.32C343.33 328.24 343.12 328.19 342.95 328.15C342.1 327.94 341.41 327.76 340.88 327.61C340.35 327.46 339.94 327.32 339.64 327.19C339.34 327.05 339.14 326.9 339.04 326.74C338.94 326.57 338.88 326.36 338.88 326.09C338.88 325.81 338.95 325.57 339.08 325.37C339.2 325.17 339.37 325.01 339.56 324.88C339.76 324.76 339.98 324.67 340.22 324.62C340.46 324.57 340.71 324.54 340.95 324.54C341.31 324.54 341.64 324.57 341.96 324.64C342.28 324.7 342.56 324.81 342.8 324.96C343.04 325.11 343.24 325.32 343.38 325.59C343.53 325.86 343.62 326.2 343.64 326.6C343.93 326.6 346.25 326.6 346.54 326.6C346.54 325.81 346.4 325.14 346.1 324.59C345.8 324.03 345.39 323.58 344.88 323.22C344.37 322.86 343.79 322.61 343.14 322.45C342.48 322.29 341.79 322.21 341.08 322.21C340.47 322.21 339.86 322.29 339.25 322.46C338.64 322.62 338.09 322.88 337.61 323.22C337.12 323.57 336.73 324 336.43 324.51C336.13 325.03 335.98 325.64 335.98 326.33C335.98 326.97 336.1 327.51 336.34 327.94C336.57 328.37 336.88 328.73 337.26 329.03C337.64 329.32 338.08 329.56 338.56 329.74C339.05 329.93 339.54 330.08 340.05 330.21C340.55 330.35 341.04 330.48 341.52 330.59C342.01 330.69 342.44 330.83 342.82 330.99C343.2 331.15 343.51 331.34 343.75 331.57C343.98 331.8 344.1 332.1 344.1 332.47C344.1 332.81 344.01 333.09 343.83 333.31C343.65 333.54 343.43 333.71 343.17 333.84C342.9 333.97 342.61 334.05 342.31 334.1C342 334.14 341.71 334.17 341.44 334.17C341.04 334.17 340.65 334.12 340.29 334.02C339.93 333.93 339.61 333.78 339.34 333.58C339.06 333.39 338.84 333.13 338.68 332.81C338.51 332.49 338.43 332.1 338.43 331.64C338.24 331.64 337.27 331.64 335.52 331.64L335.52 331.65C335.62 332.69 335.78 333.42 335.99 333.82ZM352.42 326.18C352.71 325.74 353.09 325.39 353.56 325.13C354.04 324.87 354.61 324.73 355.29 324.73C355.96 324.73 356.53 324.87 357 325.13C357.47 325.39 357.86 325.74 358.15 326.18C358.44 326.62 358.66 327.12 358.79 327.68C358.92 328.24 358.99 328.82 358.99 329.42C358.99 329.99 358.92 330.54 358.79 331.09C358.66 331.63 358.44 332.11 358.15 332.55C357.86 332.98 357.47 333.33 357 333.59C356.53 333.85 355.96 333.98 355.29 333.98C354.61 333.98 354.04 333.85 353.56 333.59C353.09 333.33 352.71 332.98 352.42 332.55C352.13 332.11 351.91 331.63 351.78 331.09C351.65 330.54 351.58 329.99 351.58 329.42C351.58 328.82 351.65 328.24 351.78 327.68C351.78 327.68 351.78 327.68 351.78 327.68C352.01 326.97 352.22 326.47 352.42 326.18ZM350.36 334.44C350.93 335.07 351.63 335.58 352.46 335.95C353.28 336.31 354.23 336.5 355.29 336.5C356.34 336.5 357.29 336.31 358.11 335.95C358.94 335.58 359.64 335.07 360.21 334.44C360.79 333.8 361.22 333.05 361.53 332.18C361.84 331.32 361.99 330.39 361.99 329.41C361.99 328.41 361.84 327.47 361.53 326.59C361.22 325.71 360.79 324.94 360.21 324.29C359.64 323.65 358.94 323.14 358.11 322.77C357.29 322.4 356.34 322.21 355.29 322.21C354.23 322.21 353.28 322.4 352.46 322.77C351.63 323.14 350.93 323.65 350.36 324.29C349.79 324.94 349.35 325.71 349.04 326.59C348.73 327.47 348.58 328.41 348.58 329.41C348.58 330.39 348.73 331.32 349.04 332.18C349.04 332.18 349.04 332.18 349.04 332.18C349.54 333.26 349.98 334.01 350.36 334.44ZM374.67 336.17L374.67 333.65L367.17 333.65L374.48 324.91L374.48 322.54L363.75 322.54L363.75 325.06L370.49 325.06L363.18 333.81L363.18 336.17L363.18 336.17L374.67 336.17ZM379.97 336.17L379.97 322.54L376.98 322.54L376.98 336.17L376.98 336.17L379.97 336.17ZM388.36 325.9L390.08 330.9L386.55 330.9L388.33 325.9L388.33 325.9L388.36 325.9ZM384.7 336.17L385.77 333.14L390.86 333.14L391.9 336.17L395.01 336.17L389.91 322.54L386.84 322.54L381.66 336.17L381.66 336.17L384.7 336.17ZM406.34 336.17L406.34 333.65L399.69 333.65L399.69 322.54L396.69 322.54L396.69 336.17L396.69 336.17L406.34 336.17ZM421.18 322.54L418.94 331.93L418.9 331.93L416.58 322.54L413.77 322.54L411.4 331.82L411.36 331.82L409.2 322.54L406.2 322.54L409.81 336.17L412.85 336.17L415.12 326.89L415.16 326.89L417.47 336.17L420.45 336.17L424.12 322.54L424.12 322.54L421.18 322.54ZM429.28 336.17L429.28 322.54L426.28 322.54L426.28 336.17L426.28 336.17L429.28 336.17ZM432.23 333.82C432.55 334.44 432.98 334.94 433.52 335.33C434.05 335.73 434.67 336.02 435.38 336.21C436.09 336.4 436.82 336.5 437.57 336.5C438.5 336.5 439.31 336.39 440.02 336.17C440.73 335.94 441.32 335.64 441.8 335.25C442.27 334.86 442.63 334.4 442.87 333.87C443.12 333.33 443.24 332.75 443.24 332.13C443.24 331.62 443.16 331.17 443.01 330.78C442.86 330.39 442.66 330.06 442.41 329.78C442.16 329.5 441.88 329.26 441.58 329.07C441.28 328.88 440.99 328.72 440.69 328.6C440.39 328.48 440.1 328.38 439.84 328.32C439.57 328.24 439.35 328.19 439.19 328.15C438.34 327.94 437.64 327.76 437.12 327.61C436.59 327.46 436.17 327.32 435.88 327.19C435.57 327.05 435.38 326.9 435.27 326.74C435.17 326.57 435.12 326.36 435.12 326.09C435.12 325.81 435.19 325.57 435.31 325.37C435.44 325.17 435.6 325.01 435.8 324.88C436 324.76 436.22 324.67 436.46 324.62C436.7 324.57 436.94 324.54 437.19 324.54C437.54 324.54 437.88 324.57 438.2 324.64C438.52 324.7 438.8 324.81 439.04 324.96C439.28 325.11 439.47 325.32 439.62 325.59C439.76 325.86 439.85 326.2 439.88 326.6C440.17 326.6 442.49 326.6 442.78 326.6C442.78 325.81 442.63 325.14 442.33 324.59C442.03 324.03 441.63 323.58 441.12 323.22C440.61 322.86 440.03 322.61 439.37 322.45C438.71 322.29 438.03 322.21 437.32 322.21C436.71 322.21 436.1 322.29 435.49 322.46C434.87 322.62 434.33 322.88 433.84 323.22C433.36 323.57 432.97 324 432.67 324.51C432.37 325.03 432.22 325.64 432.22 326.33C432.22 326.97 432.34 327.51 432.57 327.94C432.81 328.37 433.12 328.73 433.5 329.03C433.88 329.32 434.32 329.56 434.8 329.74C435.28 329.93 435.78 330.08 436.29 330.21C436.78 330.35 437.28 330.48 437.76 330.59C438.24 330.69 438.68 330.83 439.06 330.99C439.44 331.15 439.75 331.34 439.99 331.57C440.22 331.8 440.34 332.1 440.34 332.47C440.34 332.81 440.25 333.09 440.07 333.31C439.89 333.54 439.67 333.71 439.4 333.84C439.14 333.97 438.85 334.05 438.54 334.1C438.24 334.14 437.95 334.17 437.69 334.17C437.28 334.17 436.89 334.12 436.53 334.02C436.17 333.93 435.85 333.78 435.57 333.58C435.3 333.39 435.08 333.13 434.92 332.81C434.75 332.49 434.67 332.1 434.67 331.64C434.47 331.64 433.5 331.64 431.76 331.64L431.76 331.65C431.86 332.69 432.01 333.42 432.23 333.82ZM445.58 333.82C445.9 334.44 446.33 334.94 446.87 335.33C447.4 335.73 448.02 336.02 448.73 336.21C449.44 336.4 450.16 336.5 450.92 336.5C451.85 336.5 452.67 336.39 453.37 336.17C454.07 335.94 454.67 335.64 455.15 335.25C455.62 334.86 455.98 334.4 456.23 333.87C456.47 333.33 456.59 332.75 456.59 332.13C456.59 331.62 456.51 331.17 456.36 330.78C456.21 330.39 456.01 330.06 455.76 329.78C455.51 329.5 455.23 329.26 454.94 329.07C454.64 328.88 454.34 328.72 454.04 328.6C453.74 328.48 453.46 328.38 453.19 328.32C452.92 328.24 452.71 328.19 452.54 328.15C451.69 327.94 451 327.76 450.47 327.61C449.94 327.46 449.53 327.32 449.23 327.19C448.93 327.05 448.73 326.9 448.62 326.74C448.52 326.57 448.47 326.36 448.47 326.09C448.47 325.81 448.54 325.57 448.66 325.37C448.79 325.17 448.95 325.01 449.15 324.88C449.35 324.76 449.57 324.67 449.81 324.62C450.05 324.57 450.3 324.54 450.54 324.54C450.89 324.54 451.23 324.57 451.55 324.64C451.87 324.7 452.15 324.81 452.39 324.96C452.63 325.11 452.82 325.32 452.97 325.59C453.12 325.86 453.2 326.2 453.23 326.6C453.52 326.6 455.84 326.6 456.13 326.6C456.13 325.81 455.98 325.14 455.68 324.59C455.38 324.03 454.98 323.58 454.47 323.22C453.96 322.86 453.38 322.61 452.72 322.45C452.07 322.29 451.38 322.21 450.67 322.21C450.06 322.21 449.45 322.29 448.84 322.46C448.23 322.62 447.68 322.88 447.19 323.22C446.71 323.57 446.32 324 446.02 324.51C445.72 325.03 445.57 325.64 445.57 326.33C445.57 326.97 445.69 327.51 445.92 327.94C446.16 328.37 446.47 328.73 446.85 329.03C447.23 329.32 447.66 329.56 448.15 329.74C448.63 329.93 449.13 330.08 449.64 330.21C450.14 330.35 450.63 330.48 451.11 330.59C451.59 330.69 452.03 330.83 452.41 330.99C452.79 331.15 453.1 331.34 453.33 331.57C453.57 331.8 453.69 332.1 453.69 332.47C453.69 332.81 453.6 333.09 453.42 333.31C453.24 333.54 453.02 333.71 452.75 333.84C452.49 333.97 452.2 334.05 451.89 334.1C451.59 334.14 451.3 334.17 451.03 334.17C450.63 334.17 450.24 334.12 449.88 334.02C449.52 333.93 449.2 333.78 448.93 333.58C448.65 333.39 448.43 333.13 448.27 332.81C448.1 332.49 448.02 332.1 448.02 331.64C447.82 331.64 446.85 331.64 445.11 331.64L445.11 331.65C445.21 332.69 445.36 333.42 445.58 333.82ZM469.29 336.17L469.29 333.65L461.94 333.65L461.94 330.31L468.54 330.31L468.54 327.98L461.94 327.98L461.94 325.06L469.14 325.06L469.14 322.54L458.94 322.54L458.94 336.17L458.94 336.17L469.29 336.17ZM475.08 336.17L475.08 327.05L475.11 327.05L480.79 336.17L483.78 336.17L483.78 322.54L480.98 322.54L480.98 331.69L480.94 331.69L475.25 322.54L472.27 322.54L472.27 336.17L472.27 336.17L475.08 336.17ZM486.6 333.82C486.93 334.44 487.36 334.94 487.89 335.33C488.43 335.73 489.05 336.02 489.75 336.21C490.46 336.4 491.19 336.5 491.94 336.5C492.87 336.5 493.69 336.39 494.39 336.17C495.1 335.94 495.69 335.64 496.17 335.25C496.65 334.86 497.01 334.4 497.25 333.87C497.49 333.33 497.61 332.75 497.61 332.13C497.61 331.62 497.53 331.17 497.38 330.78C497.23 330.39 497.03 330.06 496.78 329.78C496.53 329.5 496.26 329.26 495.96 329.07C495.66 328.88 495.36 328.72 495.06 328.6C494.76 328.48 494.48 328.38 494.21 328.32C493.95 328.24 493.73 328.19 493.56 328.15C492.71 327.94 492.02 327.76 491.49 327.61C490.96 327.46 490.55 327.32 490.25 327.19C489.95 327.05 489.75 326.9 489.65 326.74C489.55 326.57 489.5 326.36 489.5 326.09C489.5 325.81 489.56 325.57 489.69 325.37C489.82 325.17 489.98 325.01 490.17 324.88C490.37 324.76 490.59 324.67 490.83 324.62C491.08 324.57 491.32 324.54 491.56 324.54C491.91 324.54 492.26 324.57 492.57 324.64C492.89 324.7 493.17 324.81 493.41 324.96C493.65 325.11 493.84 325.32 493.99 325.59C494.14 325.86 494.23 326.2 494.25 326.6C494.54 326.6 496.87 326.6 497.16 326.6C497.16 325.81 497 325.14 496.71 324.59C496.41 324.03 496 323.58 495.49 323.22C494.98 322.86 494.4 322.61 493.75 322.45C493.09 322.29 492.41 322.21 491.69 322.21C491.08 322.21 490.47 322.29 489.86 322.46C489.25 322.62 488.7 322.88 488.22 323.22C487.73 323.57 487.34 324 487.04 324.51C486.74 325.03 486.6 325.64 486.6 326.33C486.6 326.97 486.71 327.51 486.95 327.94C487.18 328.37 487.49 328.73 487.87 329.03C488.25 329.32 488.69 329.56 489.17 329.74C489.66 329.93 490.15 330.08 490.66 330.21C491.16 330.35 491.65 330.48 492.13 330.59C492.62 330.69 493.05 330.83 493.43 330.99C493.81 331.15 494.12 331.34 494.36 331.57C494.59 331.8 494.71 332.1 494.71 332.47C494.71 332.81 494.62 333.09 494.44 333.31C494.26 333.54 494.04 333.71 493.78 333.84C493.51 333.97 493.22 334.05 492.91 334.1C492.61 334.14 492.32 334.17 492.06 334.17C491.65 334.17 491.26 334.12 490.9 334.02C490.54 333.93 490.22 333.78 489.95 333.58C489.67 333.39 489.45 333.13 489.29 332.81C489.12 332.49 489.04 332.1 489.04 331.64C488.84 331.64 487.88 331.64 486.13 331.64L486.13 331.65C486.23 332.69 486.39 333.42 486.6 333.82ZM511.59 325.02C511.25 324.41 510.81 323.9 510.28 323.48C509.76 323.07 509.16 322.76 508.49 322.54C507.82 322.32 507.11 322.21 506.36 322.21C505.3 322.21 504.36 322.4 503.53 322.77C502.7 323.14 502.01 323.65 501.43 324.29C500.86 324.94 500.42 325.71 500.11 326.59C499.81 327.46 499.66 328.41 499.66 329.41C499.66 330.39 499.81 331.32 500.11 332.18C500.42 333.05 500.86 333.8 501.43 334.43C502.01 335.07 502.7 335.57 503.53 335.94C504.36 336.31 505.3 336.5 506.36 336.5C507.2 336.5 507.97 336.37 508.67 336.11C509.37 335.85 509.98 335.47 510.5 334.99C511.02 334.5 511.45 333.92 511.76 333.23C512.08 332.54 512.28 331.77 512.36 330.92C512.07 330.92 509.74 330.92 509.45 330.92C509.34 331.82 509.02 332.56 508.51 333.13C507.99 333.69 507.27 333.98 506.36 333.98C505.68 333.98 505.11 333.84 504.64 333.58C504.17 333.32 503.79 332.98 503.49 332.54C503.2 332.11 502.99 331.62 502.85 331.08C502.72 330.54 502.65 329.98 502.65 329.41C502.65 328.81 502.72 328.23 502.85 327.67C502.99 327.11 503.2 326.61 503.49 326.17C503.79 325.73 504.17 325.38 504.64 325.12C505.11 324.86 505.68 324.73 506.36 324.73C506.73 324.73 507.08 324.79 507.42 324.91C507.76 325.03 508.06 325.2 508.33 325.42C508.59 325.64 508.82 325.89 508.99 326.17C509.17 326.46 509.28 326.77 509.34 327.12C509.53 327.12 510.5 327.12 512.24 327.12L512.24 327.12C512.04 326.13 511.82 325.43 511.59 325.02ZM518.16 336.17L518.16 330.29L523.68 330.29L523.68 336.17L526.68 336.17L526.68 322.54L523.68 322.54L523.68 327.77L518.16 327.77L518.16 322.54L515.16 322.54L515.16 336.17L515.16 336.17L518.16 336.17ZM535.18 325.9L536.9 330.9L533.36 330.9L535.14 325.9L535.14 325.9L535.18 325.9ZM531.51 336.17L532.58 333.14L537.68 333.14L538.71 336.17L541.83 336.17L536.72 322.54L533.65 322.54L528.48 336.17L528.48 336.17L531.51 336.17ZM547.04 336.17L547.04 330.54L552.75 330.54L552.75 328.21L547.04 328.21L547.04 325.06L553.63 325.06L553.63 322.54L544.04 322.54L544.04 336.17L544.04 336.17L547.04 336.17ZM562.53 336.17L562.53 325.06L566.62 325.06L566.62 322.54L555.44 322.54L555.44 325.06L559.53 325.06L559.53 336.17L559.53 336.17L562.53 336.17ZM579.05 336.17L579.05 333.65L571.69 333.65L571.69 330.31L578.3 330.31L578.3 327.98L571.69 327.98L571.69 325.06L578.89 325.06L578.89 322.54L568.7 322.54L568.7 336.17L568.7 336.17L579.05 336.17ZM584.34 336.17L584.34 327.05L584.38 327.05L590.05 336.17L593.05 336.17L593.05 322.54L590.24 322.54L590.24 331.69L590.2 331.69L584.51 322.54L581.53 322.54L581.53 336.17L581.53 336.17L584.34 336.17Z" id="a5cc8Wxhr4"/><path d="M289.87 319.99L289.87 314.36L295.58 314.36L295.58 312.03L289.87 312.03L289.87 308.88L296.45 308.88L296.45 306.35L286.87 306.35L286.87 319.99L286.87 319.99L289.87 319.99ZM302.91 309.72L304.63 314.72L301.09 314.72L302.87 309.72L302.87 309.72L302.91 309.72ZM299.24 319.99L300.31 316.96L305.41 316.96L306.44 319.99L309.56 319.99L304.46 306.35L301.38 306.35L296.21 319.99L296.21 319.99L299.24 319.99ZM321.97 308.84C321.63 308.23 321.19 307.71 320.66 307.3C320.14 306.89 319.54 306.57 318.87 306.35C318.2 306.14 317.49 306.03 316.74 306.03C315.68 306.03 314.74 306.22 313.91 306.58C313.08 306.95 312.38 307.46 311.81 308.11C311.24 308.76 310.8 309.52 310.49 310.4C310.19 311.28 310.04 312.22 310.04 313.23C310.04 314.21 310.19 315.13 310.49 316C310.8 316.86 311.24 317.62 311.81 318.25C312.38 318.89 313.08 319.39 313.91 319.76C314.74 320.13 315.68 320.32 316.74 320.32C317.58 320.32 318.35 320.18 319.05 319.92C319.75 319.66 320.36 319.29 320.88 318.8C321.4 318.32 321.83 317.74 322.15 317.05C322.46 316.36 322.66 315.59 322.74 314.74C322.45 314.74 320.12 314.74 319.83 314.74C319.72 315.64 319.4 316.38 318.89 316.94C318.37 317.51 317.66 317.79 316.74 317.79C316.06 317.79 315.49 317.66 315.02 317.4C314.55 317.14 314.17 316.8 313.88 316.36C313.58 315.93 313.37 315.44 313.24 314.9C313.1 314.36 313.04 313.8 313.04 313.23C313.04 312.63 313.1 312.05 313.24 311.49C313.37 310.93 313.58 310.43 313.88 309.99C314.17 309.55 314.55 309.2 315.02 308.94C315.49 308.68 316.06 308.55 316.74 308.55C317.11 308.55 317.46 308.61 317.8 308.73C318.14 308.85 318.44 309.02 318.71 309.23C318.98 309.45 319.2 309.7 319.38 309.99C319.55 310.28 319.67 310.59 319.72 310.94C319.91 310.94 320.88 310.94 322.62 310.94L322.62 310.94C322.42 309.95 322.2 309.24 321.97 308.84ZM328.06 319.99L328.06 314.11L333.59 314.11L333.59 319.99L336.58 319.99L336.58 306.35L333.59 306.35L333.59 311.59L328.06 311.59L328.06 306.35L325.07 306.35L325.07 319.99L325.07 319.99L328.06 319.99ZM345.39 308.69C345.65 308.69 345.91 308.71 346.16 308.75C346.41 308.8 346.63 308.88 346.82 308.99C347.01 309.11 347.16 309.27 347.28 309.47C347.39 309.67 347.45 309.93 347.45 310.25C347.45 310.82 347.28 311.24 346.93 311.49C346.59 311.75 346.15 311.87 345.62 311.87C345.41 311.87 344.4 311.87 342.58 311.87L342.58 308.69L342.58 308.69C344.26 308.69 345.2 308.69 345.39 308.69ZM346.19 319.99C346.8 319.99 347.4 319.92 347.97 319.76C348.55 319.61 349.07 319.37 349.52 319.06C349.97 318.74 350.33 318.33 350.6 317.82C350.87 317.32 351 316.72 351 316.04C351 315.19 350.79 314.45 350.38 313.85C349.97 313.25 349.34 312.82 348.5 312.58C349.1 312.29 349.56 311.91 349.88 311.44C350.19 310.98 350.35 310.41 350.35 309.74C350.35 309.1 350.25 308.57 350.04 308.13C349.83 307.7 349.53 307.35 349.15 307.09C348.77 306.83 348.31 306.64 347.77 306.53C347.24 306.41 346.65 306.35 346 306.35C345.57 306.35 343.43 306.35 339.58 306.35L339.58 319.99L339.58 319.99C343.54 319.99 345.75 319.99 346.19 319.99ZM345.84 313.92C346.5 313.92 347.02 314.07 347.41 314.37C347.81 314.67 348 315.17 348 315.87C348 316.22 347.94 316.52 347.82 316.75C347.7 316.98 347.54 317.16 347.33 317.29C347.13 317.42 346.9 317.52 346.63 317.58C346.36 317.63 346.08 317.66 345.79 317.66C345.57 317.66 344.5 317.66 342.58 317.66L342.58 313.92L342.58 313.92C344.54 313.92 345.63 313.92 345.84 313.92ZM363.81 319.99L363.81 317.47L356.46 317.47L356.46 314.13L363.06 314.13L363.06 311.8L356.46 311.8L356.46 308.88L363.66 308.88L363.66 306.35L353.46 306.35L353.46 319.99L353.46 319.99L363.81 319.99ZM372.54 308.69C373.21 308.69 373.72 308.83 374.07 309.13C374.42 309.43 374.6 309.91 374.6 310.58C374.6 311.26 374.42 311.76 374.07 312.06C373.72 312.37 373.21 312.52 372.54 312.52C372.32 312.52 371.22 312.52 369.25 312.52L369.25 308.69L369.25 308.69C371.22 308.69 372.32 308.69 372.54 308.69ZM369.25 319.99L369.25 314.66C371.05 314.66 372.05 314.66 372.25 314.66C373 314.66 373.54 314.83 373.87 315.16C374.21 315.49 374.42 316.01 374.53 316.72C374.56 316.99 374.59 317.28 374.61 317.57C374.63 317.87 374.66 318.17 374.69 318.45C374.72 318.74 374.76 319.01 374.8 319.27C374.85 319.54 374.91 319.77 375 319.99C375.3 319.99 377.7 319.99 378 319.99C377.86 319.8 377.75 319.57 377.69 319.28C377.62 319.01 377.57 318.72 377.53 318.42C377.5 318.12 377.48 317.82 377.47 317.53C377.45 317.23 377.44 316.98 377.43 316.76C377.4 316.42 377.36 316.08 377.28 315.74C377.21 315.4 377.1 315.09 376.95 314.8C376.8 314.5 376.6 314.25 376.36 314.04C376.12 313.83 375.81 313.67 375.44 313.57C375.44 313.57 375.44 313.54 375.44 313.53C376.21 313.23 376.76 312.78 377.1 312.2C377.43 311.61 377.6 310.92 377.6 310.12C377.6 309.61 377.51 309.12 377.32 308.66C377.14 308.21 376.87 307.81 376.52 307.46C376.17 307.12 375.75 306.85 375.26 306.65C374.77 306.45 374.22 306.35 373.61 306.35C373.12 306.35 370.67 306.35 366.26 306.35L366.26 319.99L366.26 319.99L369.25 319.99ZM390.78 319.99L390.78 317.47L383.42 317.47L383.42 314.13L390.03 314.13L390.03 311.8L383.42 311.8L383.42 308.88L390.62 308.88L390.62 306.35L380.42 306.35L380.42 319.99L380.42 319.99L390.78 319.99ZM396.24 319.99L396.24 306.35L393.24 306.35L393.24 319.99L393.24 319.99L396.24 319.99ZM410.62 308.84C410.28 308.23 409.84 307.71 409.31 307.3C408.78 306.89 408.19 306.57 407.52 306.35C406.85 306.14 406.14 306.03 405.39 306.03C404.33 306.03 403.39 306.22 402.56 306.58C401.73 306.95 401.03 307.46 400.46 308.11C399.89 308.76 399.45 309.52 399.14 310.4C398.83 311.28 398.68 312.22 398.68 313.23C398.68 314.21 398.83 315.13 399.14 316C399.45 316.86 399.89 317.62 400.46 318.25C401.03 318.89 401.73 319.39 402.56 319.76C403.39 320.13 404.33 320.32 405.39 320.32C406.23 320.32 407 320.18 407.7 319.92C408.4 319.66 409.01 319.29 409.53 318.8C410.05 318.32 410.47 317.74 410.79 317.05C411.11 316.36 411.31 315.59 411.38 314.74C411.09 314.74 408.77 314.74 408.48 314.74C408.37 315.64 408.05 316.38 407.53 316.94C407.02 317.51 406.3 317.79 405.39 317.79C404.71 317.79 404.14 317.66 403.67 317.4C403.19 317.14 402.81 316.8 402.52 316.36C402.23 315.93 402.01 315.44 401.88 314.9C401.75 314.36 401.68 313.8 401.68 313.23C401.68 312.63 401.75 312.05 401.88 311.49C402.01 310.93 402.23 310.43 402.52 309.99C402.81 309.55 403.19 309.2 403.67 308.94C404.14 308.68 404.71 308.55 405.39 308.55C405.76 308.55 406.11 308.61 406.44 308.73C406.78 308.85 407.09 309.02 407.35 309.23C407.62 309.45 407.84 309.7 408.02 309.99C408.2 310.28 408.31 310.59 408.36 310.94C408.56 310.94 409.53 310.94 411.27 310.94L411.27 310.94C411.07 309.95 410.85 309.24 410.62 308.84ZM416.71 319.99L416.71 314.11L422.23 314.11L422.23 319.99L425.23 319.99L425.23 306.35L422.23 306.35L422.23 311.59L416.71 311.59L416.71 306.35L413.71 306.35L413.71 319.99L413.71 319.99L416.71 319.99ZM447.69 306.35L445.46 315.75L445.42 315.75L443.09 306.35L440.28 306.35L437.91 315.64L437.87 315.64L435.71 306.35L432.72 306.35L436.32 319.99L439.36 319.99L441.64 310.71L441.67 310.71L443.98 319.99L446.96 319.99L450.63 306.35L450.63 306.35L447.69 306.35ZM455.77 319.99L455.77 306.35L452.77 306.35L452.77 319.99L452.77 319.99L455.77 319.99ZM465.57 308.69C466.24 308.69 466.75 308.83 467.1 309.13C467.45 309.43 467.63 309.91 467.63 310.58C467.63 311.26 467.45 311.76 467.1 312.06C466.75 312.37 466.24 312.52 465.57 312.52C465.35 312.52 464.25 312.52 462.28 312.52L462.28 308.69L462.28 308.69C464.25 308.69 465.35 308.69 465.57 308.69ZM462.28 319.99L462.28 314.66C464.08 314.66 465.08 314.66 465.28 314.66C466.03 314.66 466.57 314.83 466.9 315.16C467.23 315.49 467.45 316.01 467.55 316.72C467.59 316.99 467.62 317.28 467.64 317.57C467.66 317.87 467.68 318.17 467.72 318.45C467.75 318.74 467.79 319.01 467.83 319.27C467.87 319.54 467.94 319.77 468.03 319.99C468.33 319.99 470.73 319.99 471.03 319.99C470.89 319.8 470.79 319.57 470.71 319.28C470.64 319.01 470.59 318.72 470.56 318.42C470.53 318.12 470.51 317.82 470.5 317.53C470.48 317.23 470.47 316.98 470.46 316.76C470.43 316.42 470.38 316.08 470.31 315.74C470.24 315.4 470.13 315.09 469.98 314.8C469.83 314.5 469.63 314.25 469.39 314.04C469.14 313.83 468.84 313.67 468.47 313.57C468.47 313.57 468.47 313.54 468.47 313.53C469.23 313.23 469.79 312.78 470.12 312.2C470.46 311.61 470.63 310.92 470.63 310.12C470.63 309.61 470.54 309.12 470.35 308.66C470.17 308.21 469.9 307.81 469.55 307.46C469.2 307.12 468.78 306.85 468.29 306.65C467.8 306.45 467.25 306.35 466.64 306.35C466.15 306.35 463.7 306.35 459.29 306.35L459.29 319.99L459.28 319.99L462.28 319.99ZM479.6 319.99L479.6 308.88L483.69 308.88L483.69 306.35L472.52 306.35L472.52 308.88L476.6 308.88L476.6 319.99L476.6 319.99L479.6 319.99ZM485.82 317.64C486.14 318.25 486.57 318.76 487.11 319.15C487.64 319.55 488.27 319.84 488.97 320.03C489.68 320.22 490.41 320.32 491.16 320.32C492.09 320.32 492.91 320.21 493.61 319.98C494.32 319.76 494.91 319.46 495.39 319.07C495.87 318.68 496.23 318.22 496.47 317.68C496.71 317.15 496.83 316.57 496.83 315.94C496.83 315.44 496.75 314.99 496.6 314.6C496.45 314.21 496.25 313.88 496 313.59C495.75 313.31 495.48 313.08 495.18 312.89C494.88 312.7 494.58 312.54 494.28 312.42C493.98 312.3 493.7 312.2 493.43 312.13C493.17 312.06 492.95 312.01 492.78 311.97C491.93 311.75 491.24 311.57 490.71 311.42C490.18 311.28 489.77 311.14 489.47 311.01C489.17 310.87 488.97 310.72 488.87 310.56C488.77 310.39 488.71 310.18 488.71 309.91C488.71 309.63 488.78 309.39 488.91 309.19C489.03 308.99 489.2 308.83 489.39 308.7C489.59 308.57 489.81 308.48 490.05 308.43C490.3 308.39 490.54 308.36 490.78 308.36C491.13 308.36 491.47 308.39 491.79 308.45C492.11 308.52 492.39 308.63 492.63 308.78C492.87 308.93 493.07 309.14 493.21 309.41C493.36 309.67 493.44 310.01 493.47 310.42C493.76 310.42 496.08 310.42 496.37 310.42C496.37 309.63 496.23 308.96 495.93 308.4C495.63 307.85 495.22 307.4 494.71 307.04C494.21 306.68 493.62 306.43 492.96 306.26C492.31 306.1 491.62 306.03 490.91 306.03C490.3 306.03 489.69 306.11 489.08 306.27C488.47 306.44 487.92 306.7 487.44 307.04C486.95 307.38 486.56 307.81 486.26 308.33C485.96 308.84 485.81 309.45 485.81 310.15C485.81 310.79 485.93 311.32 486.17 311.76C486.4 312.19 486.71 312.55 487.09 312.84C487.48 313.14 487.91 313.38 488.39 313.56C488.88 313.75 489.37 313.9 489.88 314.03C490.38 314.17 490.87 314.29 491.35 314.4C491.83 314.51 492.27 314.64 492.65 314.8C493.03 314.96 493.34 315.16 493.58 315.39C493.81 315.62 493.93 315.92 493.93 316.28C493.93 316.63 493.84 316.91 493.66 317.13C493.48 317.36 493.26 317.53 493 317.66C492.73 317.79 492.44 317.87 492.14 317.92C491.83 317.96 491.54 317.98 491.28 317.98C490.87 317.98 490.48 317.94 490.12 317.84C489.76 317.75 489.44 317.6 489.17 317.4C488.89 317.2 488.68 316.95 488.51 316.63C488.34 316.31 488.26 315.92 488.26 315.46C488.06 315.46 487.1 315.46 485.35 315.46L485.35 315.47C485.45 316.51 485.6 317.24 485.82 317.64ZM510.81 308.84C510.47 308.23 510.03 307.71 509.5 307.3C508.97 306.89 508.38 306.57 507.71 306.35C507.04 306.14 506.33 306.03 505.58 306.03C504.52 306.03 503.58 306.22 502.75 306.58C501.92 306.95 501.22 307.46 500.65 308.11C500.08 308.76 499.64 309.52 499.33 310.4C499.02 311.28 498.87 312.22 498.87 313.23C498.87 314.21 499.02 315.13 499.33 316C499.64 316.86 500.08 317.62 500.65 318.25C501.22 318.89 501.92 319.39 502.75 319.76C503.58 320.13 504.52 320.32 505.58 320.32C506.42 320.32 507.19 320.18 507.89 319.92C508.59 319.66 509.2 319.29 509.72 318.8C510.24 318.32 510.66 317.74 510.98 317.05C511.3 316.36 511.5 315.59 511.57 314.74C511.28 314.74 508.96 314.74 508.67 314.74C508.56 315.64 508.24 316.38 507.73 316.94C507.21 317.51 506.49 317.79 505.58 317.79C504.9 317.79 504.33 317.66 503.86 317.4C503.39 317.14 503 316.8 502.71 316.36C502.42 315.93 502.2 315.44 502.07 314.9C501.94 314.36 501.87 313.8 501.87 313.23C501.87 312.63 501.94 312.05 502.07 311.49C502.2 310.93 502.42 310.43 502.71 309.99C503 309.55 503.39 309.2 503.86 308.94C504.33 308.68 504.9 308.55 505.58 308.55C505.95 308.55 506.3 308.61 506.64 308.73C506.97 308.85 507.28 309.02 507.54 309.23C507.81 309.45 508.03 309.7 508.21 309.99C508.39 310.28 508.51 310.59 508.55 310.94C508.75 310.94 509.72 310.94 511.46 310.94L511.46 310.94C511.26 309.95 511.04 309.24 510.81 308.84ZM517.19 319.99L517.19 314.11L522.71 314.11L522.71 319.99L525.71 319.99L525.71 306.35L522.71 306.35L522.71 311.59L517.19 311.59L517.19 306.35L514.19 306.35L514.19 319.99L514.19 319.99L517.19 319.99ZM534.47 309.72L536.19 314.72L532.66 314.72L534.44 309.72L534.44 309.72L534.47 309.72ZM530.81 319.99L531.87 316.96L536.98 316.96L538.01 319.99L541.12 319.99L536.02 306.35L532.94 306.35L527.77 319.99L527.77 319.99L530.81 319.99ZM546.07 319.99L546.07 314.36L551.78 314.36L551.78 312.03L546.07 312.03L546.07 308.88L552.66 308.88L552.66 306.35L543.07 306.35L543.07 319.99L543.07 319.99L546.07 319.99ZM561.84 319.99L561.84 308.88L565.93 308.88L565.93 306.35L554.75 306.35L554.75 308.88L558.84 308.88L558.84 319.99L558.84 319.99L561.84 319.99ZM567.62 317.64C567.94 318.25 568.37 318.76 568.91 319.15C569.44 319.55 570.06 319.84 570.77 320.03C571.48 320.22 572.2 320.32 572.96 320.32C573.89 320.32 574.7 320.21 575.41 319.98C576.12 319.76 576.71 319.46 577.19 319.07C577.66 318.68 578.02 318.22 578.27 317.68C578.51 317.15 578.63 316.57 578.63 315.94C578.63 315.44 578.55 314.99 578.4 314.6C578.25 314.21 578.04 313.88 577.8 313.59C577.55 313.31 577.27 313.08 576.98 312.89C576.68 312.7 576.38 312.54 576.08 312.42C575.78 312.3 575.5 312.2 575.23 312.13C574.96 312.06 574.75 312.01 574.58 311.97C573.73 311.75 573.04 311.57 572.51 311.42C571.98 311.28 571.57 311.14 571.27 311.01C570.97 310.87 570.77 310.72 570.66 310.56C570.56 310.39 570.51 310.18 570.51 309.91C570.51 309.63 570.58 309.39 570.7 309.19C570.83 308.99 570.99 308.83 571.19 308.7C571.39 308.57 571.61 308.48 571.85 308.43C572.09 308.39 572.34 308.36 572.58 308.36C572.93 308.36 573.27 308.39 573.59 308.45C573.91 308.52 574.19 308.63 574.43 308.78C574.67 308.93 574.86 309.14 575.01 309.41C575.16 309.67 575.24 310.01 575.27 310.42C575.56 310.42 577.88 310.42 578.17 310.42C578.17 309.63 578.02 308.96 577.72 308.4C577.42 307.85 577.02 307.4 576.51 307.04C576 306.68 575.42 306.43 574.76 306.26C574.11 306.1 573.42 306.03 572.71 306.03C572.1 306.03 571.49 306.11 570.88 306.27C570.27 306.44 569.72 306.7 569.23 307.04C568.75 307.38 568.36 307.81 568.06 308.33C567.76 308.84 567.61 309.45 567.61 310.15C567.61 310.79 567.73 311.32 567.96 311.76C568.2 312.19 568.51 312.55 568.89 312.84C569.27 313.14 569.71 313.38 570.19 313.56C570.67 313.75 571.17 313.9 571.68 314.03C572.17 314.17 572.66 314.29 573.15 314.4C573.63 314.51 574.07 314.64 574.45 314.8C574.83 314.96 575.14 315.16 575.37 315.39C575.61 315.62 575.73 315.92 575.73 316.28C575.73 316.63 575.64 316.91 575.46 317.13C575.28 317.36 575.06 317.53 574.79 317.66C574.52 317.79 574.24 317.87 573.93 317.92C573.63 317.96 573.34 317.98 573.07 317.98C572.67 317.98 572.28 317.94 571.92 317.84C571.55 317.75 571.24 317.6 570.96 317.4C570.69 317.2 570.47 316.95 570.3 316.63C570.14 316.31 570.06 315.92 570.06 315.46C569.86 315.46 568.89 315.46 567.15 315.46L567.15 315.47C567.25 316.51 567.4 317.24 567.62 317.64ZM586.9 315.94L586.9 313.61L581.15 313.61L581.15 315.94L581.15 315.94L586.9 315.94Z" id="a6dVfsylTn"/></defs><g><g><g><use xlink:href="#a1GwGNsya4" opacity="1" fill="#ffffff" fill-opacity="1"/><g><use xlink:href="#a1GwGNsya4" opacity="1" fill-opacity="0" stroke="#000000" stroke-width="1" stroke-opacity="0"/></g></g><g><use xlink:href="#agYxhh979" opacity="1" fill="#8d1429" fill-opacity="1"/><g><use xlink:href="#agYxhh979" opacity="1" fill-opacity="0" stroke="#000000" stroke-width="1" stroke-opacity="0"/></g></g><g><use xlink:href="#a1c57yLZT9" opacity="1" fill="#8d1429" fill-opacity="1"/><g><use xlink:href="#a1c57yLZT9" opacity="1" fill-opacity="0" stroke="#000000" stroke-width="1" stroke-opacity="0"/></g></g><g><use xlink:href="#d1ggUNFm0" opacity="1" fill="#8d1429" fill-opacity="1"/><g><use xlink:href="#d1ggUNFm0" opacity="1" fill-opacity="0" stroke="#000000" stroke-width="1" stroke-opacity="0"/></g></g><g><use xlink:href="#d4MnRNumh8" opacity="1" fill="#8d1429" fill-opacity="1"/><g><use xlink:href="#d4MnRNumh8" opacity="1" fill-opacity="0" stroke="#000000" stroke-width="1" stroke-opacity="0"/></g></g><g><use xlink:href="#cuNBMqfrk" opacity="1" fill="#8d1429" fill-opacity="1"/><g><use xlink:href="#cuNBMqfrk" opacity="1" fill-opacity="0" stroke="#000000" stroke-width="1" stroke-opacity="0"/></g></g><g><use xlink:href="#aFM6AOrNM" opacity="1" fill="#8d1429" fill-opacity="1"/><g><use xlink:href="#aFM6AOrNM" opacity="1" fill-opacity="0" stroke="#000000" stroke-width="1" stroke-opacity="0"/></g></g><g><use xlink:href="#c1GqZAi32c" opacity="1" fill="#8d1429" fill-opacity="1"/><g><use xlink:href="#c1GqZAi32c" opacity="1" fill-opacity="0" stroke="#000000" stroke-width="1" stroke-opacity="0"/></g></g><g><use xlink:href="#h12BkbGocn" opacity="1" fill="#8d1429" fill-opacity="1"/><g><use xlink:href="#h12BkbGocn" opacity="1" fill-opacity="0" stroke="#000000" stroke-width="1" stroke-opacity="0"/></g></g><g><use xlink:href="#b4WMH2Ad0u" opacity="1" fill="#083a64" fill-opacity="1"/><g><use xlink:href="#b4WMH2Ad0u" opacity="1" fill-opacity="0" stroke="#000000" stroke-width="1" stroke-opacity="0"/></g></g><g><use xlink:href="#aktBkWFJH" opacity="1" fill="#083a64" fill-opacity="1"/><g><use xlink:href="#aktBkWFJH" opacity="1" fill-opacity="0" stroke="#000000" stroke-width="1" stroke-opacity="0"/></g></g><g><use xlink:href="#a2MvzDZTEU" opacity="1" fill="#083a64" fill-opacity="1"/><g><use xlink:href="#a2MvzDZTEU" opacity="1" fill-opacity="0" stroke="#000000" stroke-width="1" stroke-opacity="0"/></g></g><g><use xlink:href="#b1kVTPj3Uk" opacity="1" fill="#083a64" fill-opacity="1"/><g><use xlink:href="#b1kVTPj3Uk" opacity="1" fill-opacity="0" stroke="#000000" stroke-width="1" stroke-opacity="0"/></g></g><g><use xlink:href="#c5AJ2MjOK" opacity="1" fill="#083a64" fill-opacity="1"/><g><use xlink:href="#c5AJ2MjOK" opacity="1" fill-opacity="0" stroke="#000000" stroke-width="1" stroke-opacity="0"/></g></g><g><use xlink:href="#c6PP6Ti8FU" opacity="1" fill="#083a64" fill-opacity="1"/><g><use xlink:href="#c6PP6Ti8FU" opacity="1" fill-opacity="0" stroke="#000000" stroke-width="1" stroke-opacity="0"/></g></g><g><use xlink:href="#c17M5cC5jl" opacity="1" fill="#083a64" fill-opacity="1"/><g><use xlink:href="#c17M5cC5jl" opacity="1" fill-opacity="0" stroke="#000000" stroke-width="1" stroke-opacity="0"/></g></g><g><use xlink:href="#d7hEzKgff" opacity="1" fill="#083a64" fill-opacity="1"/><g><use xlink:href="#d7hEzKgff" opacity="1" fill-opacity="0" stroke="#000000" stroke-width="1" stroke-opacity="0"/></g></g><g><use xlink:href="#a1hl59gS8m" opacity="1" fill="#083a64" fill-opacity="1"/><g><use xlink:href="#a1hl59gS8m" opacity="1" fill-opacity="0" stroke="#000000" stroke-width="1" stroke-opacity="0"/></g></g><g><use xlink:href="#a24dFQwVLG" opacity="1" fill="#083a64" fill-opacity="1"/><g><use xlink:href="#a24dFQwVLG" opacity="1" fill-opacity="0" stroke="#000000" stroke-width="1" stroke-opacity="0"/></g></g><g><use xlink:href="#c1qbzd4YWh" opacity="1" fill="#083a64" fill-opacity="1"/><g><use xlink:href="#c1qbzd4YWh" opacity="1" fill-opacity="0" stroke="#000000" stroke-width="1" stroke-opacity="0"/></g></g><g><use xlink:href="#a4cVNoqZEC" opacity="1" fill="#083a64" fill-opacity="1"/><g><use xlink:href="#a4cVNoqZEC" opacity="1" fill-opacity="0" stroke="#000000" stroke-width="1" stroke-opacity="0"/></g></g><g><use xlink:href="#abKCkSgps" opacity="1" fill="#083a64" fill-opacity="1"/><g><use xlink:href="#abKCkSgps" opacity="1" fill-opacity="0" stroke="#000000" stroke-width="1" stroke-opacity="0"/></g></g><g><use xlink:href="#d63bp7fSaW" opacity="1" fill="#083a64" fill-opacity="1"/><g><use xlink:href="#d63bp7fSaW" opacity="1" fill-opacity="0" stroke="#000000" stroke-width="1" stroke-opacity="0"/></g></g><g><use xlink:href="#h5xHjBRNc" opacity="1" fill="#083a64" fill-opacity="1"/><g><use xlink:href="#h5xHjBRNc" opacity="1" fill-opacity="0" stroke="#000000" stroke-width="1" stroke-opacity="0"/></g></g><g><use xlink:href="#a3rmXq9sDs" opacity="1" fill="#083a64" fill-opacity="1"/><g><use xlink:href="#a3rmXq9sDs" opacity="1" fill-opacity="0" stroke="#000000" stroke-width="1" stroke-opacity="0"/></g></g><g><use xlink:href="#b3Cb3rBeFZ" opacity="1" fill="#083a64" fill-opacity="1"/><g><use xlink:href="#b3Cb3rBeFZ" opacity="1" fill-opacity="0" stroke="#000000" stroke-width="1" stroke-opacity="0"/></g></g><g><use xlink:href="#a8eWTikc1" opacity="1" fill="#083a64" fill-opacity="1"/><g><use xlink:href="#a8eWTikc1" opacity="1" fill-opacity="0" stroke="#000000" stroke-width="1" stroke-opacity="0"/></g></g><g><use xlink:href="#cClJ8t7mM" opacity="1" fill="#083a64" fill-opacity="1"/><g><use xlink:href="#cClJ8t7mM" opacity="1" fill-opacity="0" stroke="#000000" stroke-width="1" stroke-opacity="0"/></g></g><g><use xlink:href="#b1m6OMtx17" opacity="1" fill="#083a64" fill-opacity="1"/><g><use xlink:href="#b1m6OMtx17" opacity="1" fill-opacity="0" stroke="#000000" stroke-width="1" stroke-opacity="0"/></g></g><g><use xlink:href="#anvGDXh0v" opacity="1" fill="#083a64" fill-opacity="1"/><g><use xlink:href="#anvGDXh0v" opacity="1" fill-opacity="0" stroke="#000000" stroke-width="1" stroke-opacity="0"/></g></g><g><use xlink:href="#bwOL9sMLH" opacity="1" fill="#083a64" fill-opacity="1"/><g><use xlink:href="#bwOL9sMLH" opacity="1" fill-opacity="0" stroke="#000000" stroke-width="1" stroke-opacity="0"/></g></g><g><use xlink:href="#bhidZmkFH" opacity="1" fill="#083a64" fill-opacity="1"/><g><use xlink:href="#bhidZmkFH" opacity="1" fill-opacity="0" stroke="#000000" stroke-width="1" stroke-opacity="0"/></g></g><g><use xlink:href="#b382R5uPJ4" opacity="1" fill="#083a64" fill-opacity="1"/><g><use xlink:href="#b382R5uPJ4" opacity="1" fill-opacity="0" stroke="#000000" stroke-width="1" stroke-opacity="0"/></g></g><g><use xlink:href="#eCAuMl9TA" opacity="1" fill="#083a64" fill-opacity="1"/><g><use xlink:href="#eCAuMl9TA" opacity="1" fill-opacity="0" stroke="#000000" stroke-width="1" stroke-opacity="0"/></g></g><g><use xlink:href="#fFvcvWK6J" opacity="1" fill="#083a64" fill-opacity="1"/><g><use xlink:href="#fFvcvWK6J" opacity="1" fill-opacity="0" stroke="#000000" stroke-width="1" stroke-opacity="0"/></g></g><g><use xlink:href="#da74PUyqt" opacity="1" fill="#083a64" fill-opacity="1"/><g><use xlink:href="#da74PUyqt" opacity="1" fill-opacity="0" stroke="#000000" stroke-width="1" stroke-opacity="0"/></g></g><g><use xlink:href="#au1fQ7nrm" opacity="1" fill="#083a64" fill-opacity="1"/><g><use xlink:href="#au1fQ7nrm" opacity="1" fill-opacity="0" stroke="#000000" stroke-width="1" stroke-opacity="0"/></g></g><g><use xlink:href="#dLLiNbSTp" opacity="1" fill="#083a64" fill-opacity="1"/><g><use xlink:href="#dLLiNbSTp" opacity="1" fill-opacity="0" stroke="#000000" stroke-width="1" stroke-opacity="0"/></g></g><g><use xlink:href="#dgHhMuyNN" opacity="1" fill="#083a64" fill-opacity="1"/><g><use xlink:href="#dgHhMuyNN" opacity="1" fill-opacity="0" stroke="#000000" stroke-width="1" stroke-opacity="0"/></g></g><g><use xlink:href="#c6N5matZy" opacity="1" fill="#083a64" fill-opacity="1"/><g><use xlink:href="#c6N5matZy" opacity="1" fill-opacity="0" stroke="#000000" stroke-width="1" stroke-opacity="0"/></g></g><g><use xlink:href="#b1jGgcOQ8" opacity="1" fill="#083a64" fill-opacity="1"/><g><use xlink:href="#b1jGgcOQ8" opacity="1" fill-opacity="0" stroke="#000000" stroke-width="1" stroke-opacity="0"/></g></g><g><use xlink:href="#c2bsl7KvA" opacity="1" fill="#083a64" fill-opacity="1"/><g><use xlink:href="#c2bsl7KvA" opacity="1" fill-opacity="0" stroke="#000000" stroke-width="1" stroke-opacity="0"/></g></g><g><use xlink:href="#c1niQrl7sh" opacity="1" fill="#083a64" fill-opacity="1"/><g><use xlink:href="#c1niQrl7sh" opacity="1" fill-opacity="0" stroke="#000000" stroke-width="1" stroke-opacity="0"/></g></g><g><use xlink:href="#edd9uuWDx" opacity="1" fill="#083a64" fill-opacity="1"/><g><use xlink:href="#edd9uuWDx" opacity="1" fill-opacity="0" stroke="#000000" stroke-width="1" stroke-opacity="0"/></g></g><g><use xlink:href="#aGjoQ5Mbw" opacity="1" fill="#083a64" fill-opacity="1"/><g><use xlink:href="#aGjoQ5Mbw" opacity="1" fill-opacity="0" stroke="#000000" stroke-width="1" stroke-opacity="0"/></g></g><g><use xlink:href="#a5cc8Wxhr4" opacity="1" fill="#8d1429" fill-opacity="1"/><g><use xlink:href="#a5cc8Wxhr4" opacity="1" fill-opacity="0" stroke="#000000" stroke-width="1" stroke-opacity="0"/></g></g><g><use xlink:href="#a6dVfsylTn" opacity="1" fill="#8d1429" fill-opacity="1"/><g><use xlink:href="#a6dVfsylTn" opacity="1" fill-opacity="0" stroke="#000000" stroke-width="1" stroke-opacity="0"/></g></g></g></g></svg>