<?xml version="1.0" standalone="no"?>
<!DOCTYPE svg PUBLIC "-//W3C//DTD SVG 20010904//EN"
 "http://www.w3.org/TR/2001/REC-SVG-20010904/DTD/svg10.dtd">
<svg version="1.0" xmlns="http://www.w3.org/2000/svg"
 width="444.000000pt" height="118.000000pt" viewBox="0 0 444.000000 118.000000"
 preserveAspectRatio="xMidYMid meet">

<g transform="translate(0.000000,118.000000) scale(0.100000,-0.100000)"
fill="#000000" stroke="none">
<path d="M150 660 l0 -180 171 0 c132 0 170 3 167 13 -4 9 -46 13 -156 15
l-152 3 0 149 0 150 182 2 c134 2 182 6 186 16 3 9 -41 12 -197 12 l-201 0 0
-180z"/>
<path d="M631 574 c-79 -187 -110 -269 -102 -277 7 -7 13 -3 20 14 5 13 55
132 111 264 56 132 104 246 107 253 3 6 -1 12 -9 12 -10 0 -54 -93 -127 -266z"/>
<path d="M810 836 c0 -2 29 -73 65 -156 36 -83 65 -156 65 -161 0 -5 -6 -9
-13 -9 -8 0 -39 61 -72 140 -32 77 -61 140 -65 140 -8 0 -220 -499 -220 -517
0 -36 23 -2 64 95 l45 107 154 5 154 5 -76 178 c-43 102 -80 177 -88 177 -7 0
-13 -2 -13 -4z m-10 -133 c0 -32 -72 -193 -86 -193 -20 0 -19 4 28 113 39 92
58 118 58 80z m54 -115 c14 -35 26 -66 26 -70 0 -5 -27 -8 -60 -8 -33 0 -60 2
-60 5 0 13 54 135 60 135 4 0 19 -28 34 -62z"/>
<path d="M879 817 c5 -13 57 -137 116 -276 72 -168 111 -249 118 -242 13 13
-211 541 -229 541 -10 0 -11 -6 -5 -23z"/>
<path d="M1210 640 c0 -149 4 -209 14 -234 32 -77 119 -119 200 -96 52 14 102
62 116 111 6 18 10 114 10 213 0 154 -2 177 -14 167 -12 -10 -15 -50 -18 -183
l-3 -170 -28 -24 c-51 -44 -103 -44 -154 0 l-28 24 -3 196 c-3 163 -6 196 -18
196 -20 0 -21 -345 0 -394 30 -71 109 -101 178 -67 l40 20 -23 -25 c-53 -57
-147 -54 -204 6 l-30 31 -3 215 c-3 178 -5 214 -18 214 -12 0 -14 -32 -14
-200z"/>
<path d="M1580 632 c0 -196 -1 -210 -22 -252 -14 -26 -41 -57 -66 -75 -38 -26
-52 -30 -112 -30 -60 0 -74 4 -112 30 -25 18 -52 49 -65 75 -22 41 -23 57 -23
238 0 172 -2 193 -15 182 -12 -10 -15 -44 -15 -188 0 -192 7 -232 52 -287 48
-58 100 -79 193 -79 95 0 150 21 208 79 57 59 67 106 67 327 0 160 -2 188 -15
188 -13 0 -15 -28 -15 -191 0 -115 -5 -207 -11 -230 -12 -39 -67 -114 -77
-105 -3 3 3 15 12 25 38 42 45 89 46 299 0 173 -2 202 -15 202 -13 0 -15 -30
-15 -208z"/>
<path d="M2187 833 c-4 -3 -7 -14 -7 -24 0 -12 -6 -16 -20 -12 -14 4 -23 -2
-31 -20 -16 -36 3 -67 41 -67 l30 0 0 65 c0 65 -1 71 -13 58z m-7 -78 c0 -25
-23 -35 -35 -15 -10 16 2 40 20 40 9 0 15 -9 15 -25z"/>
<path d="M2727 833 c-11 -10 -8 -123 3 -123 6 0 10 28 10 65 0 65 -1 71 -13
58z"/>
<path d="M3217 833 c-4 -3 -7 -14 -7 -24 0 -12 -5 -16 -15 -13 -21 8 -45 -14
-45 -41 0 -29 18 -43 53 -43 27 0 27 1 27 64 0 64 -1 69 -13 57z m-7 -78 c0
-18 -5 -25 -20 -25 -20 0 -28 28 -13 43 15 16 33 6 33 -18z"/>
<path d="M1830 770 c0 -33 4 -60 10 -60 6 0 10 11 10 25 0 18 5 25 20 25 11 0
20 5 20 10 0 6 -9 10 -20 10 -11 0 -20 7 -20 15 0 9 9 15 25 15 14 0 25 5 25
10 0 6 -16 10 -35 10 l-35 0 0 -60z"/>
<path d="M1985 820 c4 -6 11 -8 16 -5 14 9 11 15 -7 15 -8 0 -12 -5 -9 -10z"/>
<path d="M2305 820 c4 -6 11 -8 16 -5 14 9 11 15 -7 15 -8 0 -12 -5 -9 -10z"/>
<path d="M2440 770 c0 -33 4 -60 10 -60 6 0 10 16 10 35 0 24 5 35 15 35 10 0
15 -11 15 -35 0 -19 5 -35 11 -35 6 0 9 17 7 43 -3 36 -6 42 -25 41 -16 0 -23
5 -23 18 0 10 -4 18 -10 18 -6 0 -10 -27 -10 -60z"/>
<path d="M2614 770 c-16 -47 -18 -60 -8 -60 8 0 14 7 14 15 0 21 47 19 59 -2
5 -10 12 -15 16 -12 9 10 -35 119 -48 119 -7 0 -21 -27 -33 -60z m46 -1 c0
-12 -5 -19 -11 -17 -6 2 -10 7 -10 11 1 4 1 14 1 23 0 8 5 12 10 9 6 -3 10
-15 10 -26z"/>
<path d="M3490 789 c0 -68 24 -92 74 -73 12 5 16 20 16 60 0 30 -4 54 -10 54
-5 0 -10 -23 -10 -51 0 -47 -2 -50 -22 -47 -20 3 -23 10 -26 51 -4 57 -22 63
-22 6z"/>
<path d="M3715 820 c4 -6 11 -8 16 -5 14 9 11 15 -7 15 -8 0 -12 -5 -9 -10z"/>
<path d="M4105 820 c4 -6 11 -8 16 -5 14 9 11 15 -7 15 -8 0 -12 -5 -9 -10z"/>
<path d="M4225 820 c3 -5 8 -10 11 -10 2 0 4 5 4 10 0 6 -5 10 -11 10 -5 0 -7
-4 -4 -10z"/>
<path d="M4260 820 c0 -5 5 -10 10 -10 6 0 10 5 10 10 0 6 -4 10 -10 10 -5 0
-10 -4 -10 -10z"/>
<path d="M4146 805 c-3 -8 -4 -21 -2 -27 3 -7 7 -25 10 -40 6 -26 36 -41 36
-18 0 6 -4 10 -10 10 -14 0 -12 48 2 52 9 3 8 9 -4 21 -20 21 -24 21 -32 2z"/>
<path d="M4318 808 c-3 -7 -3 -32 0 -55 3 -34 8 -43 23 -43 10 0 19 5 19 10 0
6 -4 10 -10 10 -14 0 -12 48 2 52 9 3 8 9 -4 21 -20 20 -24 21 -30 5z"/>
<path d="M103 799 c-17 -17 -19 -539 -3 -539 6 0 13 6 15 13 3 7 4 131 3 275
-2 210 -5 261 -15 251z"/>
<path d="M1915 791 c-10 -9 -5 -81 5 -81 6 0 10 14 10 30 0 18 6 33 15 36 22
9 18 23 -5 21 -12 -1 -23 -3 -25 -6z"/>
<path d="M1987 793 c-11 -10 -8 -83 3 -83 6 0 10 20 10 45 0 46 -2 50 -13 38z"/>
<path d="M2040 786 c-27 -34 8 -88 46 -71 17 8 16 9 -8 13 -37 5 -36 22 2 22
24 0 28 3 23 18 -12 33 -43 42 -63 18z m40 -16 c0 -5 -7 -10 -15 -10 -8 0 -15
5 -15 10 0 6 7 10 15 10 8 0 15 -4 15 -10z"/>
<path d="M2235 791 c-10 -9 -5 -81 5 -81 6 0 10 14 10 30 0 18 6 33 15 36 22
9 18 23 -5 21 -12 -1 -23 -3 -25 -6z"/>
<path d="M2307 793 c-11 -10 -8 -83 3 -83 6 0 10 20 10 45 0 46 -2 50 -13 38z"/>
<path d="M2362 788 c-6 -6 -12 -25 -12 -40 0 -21 6 -29 26 -34 14 -4 30 -2 37
5 8 8 4 11 -16 11 -22 0 -27 4 -27 26 0 19 4 25 20 22 10 -2 20 2 22 7 4 15
-35 18 -50 3z"/>
<path d="M2780 786 c-27 -34 8 -88 46 -71 17 8 16 9 -8 13 -37 5 -36 22 2 22
24 0 28 3 23 18 -12 33 -43 42 -63 18z m40 -16 c0 -5 -7 -10 -15 -10 -8 0 -15
5 -15 10 0 6 7 10 15 10 8 0 15 -4 15 -10z"/>
<path d="M2871 779 c8 -16 8 -28 0 -45 -7 -16 -7 -24 0 -24 5 0 12 7 16 16 6
15 7 15 20 -1 7 -10 16 -16 19 -12 4 4 1 14 -6 23 -11 13 -11 19 -1 36 16 26
5 37 -12 13 -13 -16 -14 -16 -20 -1 -4 9 -11 16 -17 16 -7 0 -7 -7 1 -21z"/>
<path d="M2965 790 c-3 -5 3 -10 14 -10 28 0 27 -18 -1 -22 -15 -2 -23 -10
-23 -23 0 -16 7 -20 38 -22 33 -1 37 2 37 24 0 13 -5 33 -10 44 -11 20 -45 26
-55 9z m45 -49 c0 -12 -28 -22 -34 -12 -3 5 -3 11 1 15 9 9 33 7 33 -3z"/>
<path d="M3050 753 c0 -23 5 -43 10 -43 6 0 10 16 10 36 0 28 3 35 18 32 11
-2 18 -14 20 -36 4 -38 22 -44 22 -6 0 42 -17 63 -50 62 -29 -1 -30 -3 -30
-45z"/>
<path d="M3266 784 c-19 -18 -20 -28 -6 -55 11 -20 54 -26 65 -9 4 6 -5 10
-19 10 -14 0 -26 5 -26 10 0 6 11 10 25 10 27 0 33 18 13 38 -16 16 -33 15
-52 -4z m44 -14 c0 -5 -9 -10 -21 -10 -11 0 -17 5 -14 10 3 6 13 10 21 10 8 0
14 -4 14 -10z"/>
<path d="M3360 753 c0 -24 5 -43 10 -43 6 0 10 16 10 35 0 24 5 35 15 35 8 0
15 4 15 9 0 5 -11 8 -25 7 -23 -1 -25 -5 -25 -43z"/>
<path d="M3615 791 c-9 -9 -5 -81 4 -81 6 0 11 15 13 32 2 22 9 34 21 36 14 3
17 -4 17 -32 0 -20 5 -36 10 -36 14 0 12 67 -2 77 -14 9 -56 12 -63 4z"/>
<path d="M3717 793 c-11 -10 -8 -83 3 -83 6 0 10 20 10 45 0 46 -2 50 -13 38z"/>
<path d="M3760 794 c0 -24 25 -84 36 -84 7 0 19 20 27 45 18 51 4 62 -16 13
l-14 -33 -7 33 c-4 17 -12 32 -17 32 -5 0 -9 -3 -9 -6z"/>
<path d="M3862 788 c-29 -29 -7 -78 35 -78 13 0 23 5 23 10 0 6 -11 10 -25 10
-14 0 -25 5 -25 10 0 6 14 10 30 10 18 0 30 5 30 13 0 18 -21 37 -40 37 -9 0
-21 -5 -28 -12z m48 -18 c0 -5 -9 -10 -20 -10 -11 0 -20 5 -20 10 0 6 9 10 20
10 11 0 20 -4 20 -10z"/>
<path d="M3950 754 c0 -24 5 -44 10 -44 6 0 10 14 10 30 0 18 6 33 15 36 23 9
18 22 -10 22 -23 0 -25 -4 -25 -44z"/>
<path d="M4023 784 c-4 -11 2 -23 18 -35 l24 -19 -22 0 c-13 0 -23 -4 -23 -10
0 -5 11 -10 25 -10 36 0 44 28 14 51 l-24 19 23 0 c13 0 20 4 17 10 -10 16
-45 12 -52 -6z"/>
<path d="M4107 793 c-11 -10 -8 -83 3 -83 6 0 10 20 10 45 0 46 -2 50 -13 38z"/>
<path d="M4225 790 c-3 -5 3 -10 14 -10 28 0 27 -18 -1 -22 -15 -2 -23 -10
-23 -23 0 -16 7 -20 38 -22 33 -1 37 2 37 24 0 13 -5 33 -10 44 -11 20 -45 26
-55 9z m45 -49 c0 -12 -28 -22 -34 -12 -3 5 -3 11 1 15 9 9 33 7 33 -3z"/>
<path d="M210 660 l0 -120 149 0 c120 0 151 3 161 15 11 13 -5 15 -134 15
l-146 0 0 60 0 60 124 0 c98 0 126 3 136 15 11 13 -4 15 -124 15 -113 0 -136
2 -136 15 0 12 26 15 152 17 110 2 152 6 156 16 3 9 -35 12 -167 12 l-171 0 0
-120z"/>
<path d="M2540 760 c0 -5 6 -10 14 -10 8 0 18 5 21 10 3 6 -3 10 -14 10 -12 0
-21 -4 -21 -10z"/>
<path d="M3425 760 c3 -5 12 -10 20 -10 8 0 17 5 20 10 4 6 -5 10 -20 10 -15
0 -24 -4 -20 -10z"/>
<path d="M3577 628 c-9 -14 -12 -39 -10 -65 6 -52 23 -57 23 -8 0 19 5 35 11
35 8 0 7 6 -2 17 -11 13 -11 17 -1 20 14 5 16 23 2 23 -5 0 -16 -10 -23 -22z"/>
<path d="M1831 578 c1 -35 4 -51 6 -35 3 19 10 27 24 27 10 0 19 5 19 10 0 6
-9 10 -20 10 -11 0 -20 7 -20 15 0 10 10 15 30 15 17 0 30 5 30 10 0 6 -16 10
-35 10 l-35 0 1 -62z"/>
<path d="M2090 580 c0 -63 16 -84 22 -28 2 22 9 34 21 36 14 3 17 -4 17 -32 0
-20 5 -36 10 -36 15 0 12 66 -4 79 -7 6 -21 9 -30 5 -12 -4 -16 0 -16 15 0 12
-4 21 -10 21 -6 0 -10 -27 -10 -60z"/>
<path d="M2190 581 l0 -59 38 1 c34 2 37 4 40 36 4 37 -12 54 -40 45 -13 -4
-18 0 -18 15 0 12 -4 21 -10 21 -6 0 -10 -26 -10 -59z m63 -3 c6 -19 -3 -38
-18 -38 -18 0 -28 17 -21 35 7 18 33 20 39 3z"/>
<path d="M2565 630 c3 -5 8 -10 11 -10 2 0 4 5 4 10 0 6 -5 10 -11 10 -5 0 -7
-4 -4 -10z"/>
<path d="M2700 580 c0 -33 4 -60 10 -60 6 0 10 16 10 35 0 24 5 35 15 35 10 0
15 -11 15 -35 0 -19 5 -35 11 -35 6 0 9 17 7 43 -3 36 -6 42 -25 41 -16 0 -23
5 -23 18 0 10 -4 18 -10 18 -6 0 -10 -27 -10 -60z"/>
<path d="M2857 580 c9 -33 20 -59 26 -57 6 2 16 21 22 43 l12 39 12 -42 c6
-24 16 -43 21 -43 5 0 14 19 20 43 6 23 13 50 16 60 3 9 1 17 -4 17 -12 0 -22
-24 -22 -51 0 -33 -17 -21 -24 17 -9 44 -26 40 -41 -12 l-11 -39 -10 39 c-5
22 -14 41 -21 43 -7 3 -6 -15 4 -57z"/>
<path d="M3015 630 c3 -5 8 -10 11 -10 2 0 4 5 4 10 0 6 -5 10 -11 10 -5 0 -7
-4 -4 -10z"/>
<path d="M3370 580 c0 -33 4 -60 10 -60 6 0 10 16 10 36 0 28 3 35 18 32 10
-2 19 -16 24 -38 6 -32 6 -31 5 10 -2 40 -5 45 -24 44 -16 0 -23 5 -23 18 0
10 -4 18 -10 18 -6 0 -10 -27 -10 -60z"/>
<path d="M4150 621 c0 -14 -5 -18 -19 -14 -27 7 -47 -31 -33 -63 8 -17 19 -22
41 -22 31 1 31 1 31 60 0 32 -4 58 -10 58 -5 0 -10 -9 -10 -19z m0 -56 c0 -25
-23 -35 -35 -15 -10 16 2 40 20 40 9 0 15 -9 15 -25z"/>
<path d="M3137 617 c-10 -26 8 -92 26 -95 9 -2 17 1 17 7 0 6 -4 11 -10 11
-14 0 -12 48 2 52 9 3 8 9 -4 21 -20 20 -24 21 -31 4z"/>
<path d="M3632 610 c-7 -12 -8 -20 -2 -20 5 0 10 -16 10 -35 0 -29 4 -35 22
-35 17 0 19 3 10 12 -15 15 -16 58 -2 58 6 0 5 8 -2 20 -7 11 -15 20 -18 20
-3 0 -11 -9 -18 -20z"/>
<path d="M1920 600 c0 -5 9 -10 20 -10 11 0 20 -4 20 -10 0 -5 -12 -10 -26
-10 -21 0 -25 -4 -22 -22 2 -18 10 -23 36 -25 30 -1 32 1 32 31 0 18 -5 37
-12 44 -15 15 -48 16 -48 2z m40 -49 c0 -14 -18 -23 -30 -16 -6 4 -8 11 -5 16
8 12 35 12 35 0z"/>
<path d="M2016 594 c-9 -8 -16 -20 -16 -25 0 -22 22 -49 40 -49 28 0 34 18 8
22 -15 2 -23 10 -23 23 0 13 8 21 23 23 12 2 20 8 17 13 -9 14 -32 11 -49 -7z"/>
<path d="M2312 598 c-7 -7 -12 -25 -12 -40 0 -21 6 -29 26 -34 14 -4 30 -2 37
5 8 8 4 11 -16 11 -15 0 -27 5 -27 10 0 6 11 10 25 10 14 0 25 6 25 13 0 16
-20 37 -35 37 -6 0 -16 -5 -23 -12z m38 -18 c0 -5 -7 -10 -15 -10 -8 0 -15 5
-15 10 0 6 7 10 15 10 8 0 15 -4 15 -10z"/>
<path d="M2400 562 c0 -26 4 -41 10 -37 6 3 10 19 10 36 0 19 5 29 15 29 8 0
15 4 15 9 0 5 -11 8 -25 7 -23 -1 -25 -5 -25 -44z"/>
<path d="M2476 594 c-19 -18 -20 -28 -6 -55 11 -20 60 -27 60 -8 0 6 -6 9 -14
6 -8 -3 -20 1 -26 9 -10 12 -7 14 19 14 32 0 41 16 19 38 -16 16 -33 15 -52
-4z m44 -14 c0 -5 -9 -10 -21 -10 -11 0 -17 5 -14 10 3 6 13 10 21 10 8 0 14
-4 14 -10z"/>
<path d="M2567 603 c-11 -10 -8 -83 3 -83 6 0 10 20 10 45 0 46 -2 50 -13 38z"/>
<path d="M2622 598 c-17 -17 -15 -65 4 -72 24 -9 44 -7 44 4 0 6 -9 10 -19 10
-10 0 -21 6 -23 13 -8 20 3 37 23 37 11 0 17 5 14 10 -8 14 -28 13 -43 -2z"/>
<path d="M3017 603 c-11 -10 -8 -83 3 -83 6 0 10 20 10 45 0 46 -2 50 -13 38z"/>
<path d="M3060 564 c0 -24 5 -44 10 -44 6 0 10 14 10 30 0 18 6 33 15 36 23 9
18 22 -10 22 -23 0 -25 -4 -25 -44z"/>
<path d="M3203 594 c-4 -11 2 -23 16 -33 23 -17 19 -34 -5 -24 -8 3 -14 0 -14
-6 0 -17 50 -13 57 5 4 11 -2 23 -18 35 l-24 19 23 0 c13 0 20 4 17 10 -10 16
-45 12 -52 -6z"/>
<path d="M3290 596 c-27 -34 8 -88 46 -71 17 8 15 9 -9 13 -22 3 -28 8 -25 25
2 14 11 23 26 25 12 2 20 8 17 13 -9 14 -41 11 -55 -5z"/>
<path d="M3480 600 c0 -5 9 -10 20 -10 27 0 25 -18 -2 -22 -15 -2 -23 -10 -23
-23 0 -16 7 -20 33 -22 31 -1 32 0 32 37 0 25 -5 40 -16 44 -24 9 -44 7 -44
-4z m38 -52 c-6 -18 -28 -21 -28 -4 0 9 7 16 16 16 9 0 14 -5 12 -12z"/>
<path d="M3703 594 c-4 -11 2 -23 16 -33 23 -17 19 -34 -5 -24 -8 3 -14 0 -14
-6 0 -16 35 -14 49 3 9 11 6 18 -16 35 -27 20 -28 20 -5 21 13 0 20 4 17 10
-10 16 -35 12 -42 -6z"/>
<path d="M3896 598 c-20 -43 16 -94 52 -72 20 13 28 62 13 77 -8 8 -11 0 -11
-26 0 -30 -4 -37 -19 -37 -16 0 -21 8 -23 38 -3 27 -6 32 -12 20z"/>
<path d="M3995 601 c-9 -9 -5 -81 4 -81 6 0 11 15 13 33 2 20 8 32 18 32 10 0
16 -12 18 -32 2 -18 7 -33 13 -33 14 0 11 68 -3 77 -14 9 -56 12 -63 4z"/>
<path d="M3788 573 c6 -2 18 -2 25 0 6 3 1 5 -13 5 -14 0 -19 -2 -12 -5z"/>
<path d="M3203 443 c-4 -10 -11 -21 -17 -25 -8 -6 -8 -10 1 -16 6 -4 13 -23
16 -42 l4 -35 1 37 c1 20 8 39 15 41 9 4 8 8 -3 17 -11 9 -12 13 -2 17 15 6
16 23 2 23 -6 0 -14 -8 -17 -17z"/>
<path d="M3563 380 c0 -47 2 -66 4 -42 2 23 2 61 0 85 -2 23 -4 4 -4 -43z"/>
<path d="M150 354 c0 -72 3 -95 13 -92 8 3 13 31 15 81 2 59 6 77 17 77 12 0
15 -14 15 -61 0 -54 2 -60 15 -49 10 8 15 30 15 61 l0 49 126 0 c96 0 125 3
122 13 -4 9 -49 13 -171 15 l-167 2 0 -96z"/>
<path d="M691 428 c-5 -13 -20 -51 -35 -85 -28 -68 -31 -83 -16 -83 5 0 19 22
31 50 l21 50 129 0 128 0 22 -50 c21 -48 39 -65 39 -36 0 7 -9 34 -20 60 l-21
46 -130 0 c-119 0 -130 2 -127 18 3 15 19 17 139 20 l135 3 33 -81 c19 -45 39
-80 47 -80 8 0 14 1 14 3 0 2 -17 44 -39 93 l-38 89 -152 3 c-149 2 -151 2
-160 -20z"/>
<path d="M1832 438 c-20 -20 -14 -37 18 -53 36 -19 39 -38 5 -33 -13 2 -25 -1
-27 -7 -5 -17 48 -17 61 -1 17 21 7 44 -24 56 -32 12 -32 30 0 30 14 0 25 5
25 10 0 14 -43 13 -58 -2z"/>
<path d="M2110 439 c0 -5 5 -7 10 -4 6 3 10 8 10 11 0 2 -4 4 -10 4 -5 0 -10
-5 -10 -11z"/>
<path d="M2250 390 c0 -33 4 -60 10 -60 6 0 10 27 10 60 0 33 -4 60 -10 60 -6
0 -10 -27 -10 -60z"/>
<path d="M2430 439 c0 -5 5 -7 10 -4 6 3 10 8 10 11 0 2 -4 4 -10 4 -5 0 -10
-5 -10 -11z"/>
<path d="M3000 390 c0 -33 4 -60 10 -60 6 0 10 16 10 35 0 24 5 35 15 35 10 0
15 -11 15 -35 0 -19 5 -35 11 -35 6 0 9 17 7 43 -3 36 -6 42 -25 41 -16 0 -23
5 -23 18 0 10 -4 18 -10 18 -6 0 -10 -27 -10 -60z"/>
<path d="M3654 433 c3 -10 10 -37 16 -60 6 -24 15 -43 20 -43 5 0 15 19 21 43
l12 42 12 -39 c6 -22 16 -41 22 -43 5 -2 17 24 25 57 9 39 11 59 4 57 -6 -2
-15 -21 -20 -43 l-10 -39 -11 39 c-15 52 -32 56 -41 12 -7 -38 -24 -50 -24
-17 0 27 -10 51 -22 51 -5 0 -7 -8 -4 -17z"/>
<path d="M3820 439 c0 -5 5 -7 10 -4 6 3 10 8 10 11 0 2 -4 4 -10 4 -5 0 -10
-5 -10 -11z"/>
<path d="M3872 438 c-20 -20 -14 -37 18 -53 36 -19 39 -38 5 -33 -13 2 -25 -1
-27 -7 -5 -17 48 -17 61 -1 17 21 7 44 -24 56 -32 12 -32 30 0 30 14 0 25 5
25 10 0 14 -43 13 -58 -2z"/>
<path d="M3246 425 c-3 -8 -4 -21 -2 -27 3 -7 7 -25 10 -40 6 -26 36 -41 36
-18 0 6 -4 10 -10 10 -14 0 -12 48 2 52 9 3 8 9 -4 21 -20 21 -24 21 -32 2z"/>
<path d="M1930 406 c-28 -35 11 -93 48 -70 35 22 22 84 -18 84 -10 0 -23 -7
-30 -14z m50 -31 c0 -18 -5 -25 -20 -25 -15 0 -20 7 -20 25 0 18 5 25 20 25
15 0 20 -7 20 -25z"/>
<path d="M2020 410 c0 -5 10 -10 22 -10 l21 0 -21 -23 c-30 -32 -27 -47 8 -47
17 0 30 5 30 10 0 6 -7 10 -16 10 -15 0 -15 2 0 25 23 35 20 45 -14 45 -16 0
-30 -4 -30 -10z"/>
<path d="M2110 376 c0 -25 5 -46 10 -46 6 0 10 18 10 39 0 22 -4 43 -10 46 -6
4 -10 -12 -10 -39z"/>
<path d="M2165 411 c-3 -7 2 -11 14 -11 28 0 27 -18 -1 -22 -15 -2 -23 -10
-23 -23 0 -16 7 -20 33 -21 33 -1 33 0 30 40 -2 33 -7 42 -25 44 -11 2 -24 -2
-28 -7z m43 -53 c-3 -7 -11 -13 -18 -13 -7 0 -15 6 -17 13 -3 7 4 12 17 12 13
0 20 -5 18 -12z"/>
<path d="M2294 403 c3 -10 8 -31 12 -46 8 -33 26 -31 35 4 l6 24 11 -27 c6
-16 16 -28 21 -28 4 0 11 12 14 28 3 15 9 35 12 45 4 9 3 17 -2 17 -5 0 -14
-12 -20 -27 l-10 -28 -8 28 c-4 15 -11 27 -15 27 -4 0 -11 -12 -15 -27 l-8
-28 -10 28 c-12 29 -32 38 -23 10z"/>
<path d="M2430 376 c0 -25 5 -46 10 -46 6 0 10 18 10 39 0 22 -4 43 -10 46 -6
4 -10 -12 -10 -39z"/>
<path d="M2473 404 c-4 -11 2 -23 16 -33 23 -17 19 -34 -5 -24 -8 3 -14 0 -14
-6 0 -17 50 -13 57 5 4 11 -2 23 -18 35 l-24 19 23 0 c13 0 20 4 17 10 -10 16
-45 12 -52 -6z"/>
<path d="M2553 404 c-4 -11 2 -23 16 -33 23 -17 19 -34 -5 -24 -8 3 -14 0 -14
-6 0 -17 50 -13 57 5 4 11 -2 23 -18 35 l-24 19 23 0 c13 0 20 4 17 10 -10 16
-45 12 -52 -6z"/>
<path d="M2642 408 c-27 -27 -7 -78 29 -78 10 0 21 5 24 11 4 6 1 10 -6 8 -25
-3 -39 1 -39 11 0 6 14 10 30 10 33 0 38 11 14 34 -19 19 -36 20 -52 4z m48
-18 c0 -5 -9 -10 -20 -10 -11 0 -20 5 -20 10 0 6 9 10 20 10 11 0 20 -4 20
-10z"/>
<path d="M2730 374 c0 -24 5 -44 10 -44 6 0 10 16 10 36 0 28 3 35 18 32 10
-2 19 -16 24 -38 6 -32 6 -31 5 10 -2 43 -3 45 -34 47 -33 1 -33 1 -33 -43z"/>
<path d="M2833 404 c-4 -11 2 -23 16 -33 23 -17 19 -34 -5 -24 -8 3 -14 0 -14
-6 0 -16 35 -14 49 3 9 11 6 18 -16 35 -27 20 -27 20 -5 21 12 0 22 5 22 10 0
17 -40 11 -47 -6z"/>
<path d="M2922 408 c-17 -17 -15 -65 4 -72 24 -9 44 -7 44 4 0 6 -9 10 -19 10
-10 0 -21 6 -23 13 -8 20 3 37 23 37 11 0 17 5 14 10 -8 14 -28 13 -43 -2z"/>
<path d="M3105 411 c-3 -7 2 -11 14 -11 28 0 27 -18 -1 -22 -15 -2 -23 -10
-23 -23 0 -16 7 -20 33 -21 33 -1 33 0 30 40 -2 33 -7 42 -25 44 -11 2 -24 -2
-28 -7z m43 -53 c-3 -7 -11 -13 -18 -13 -7 0 -15 6 -17 13 -3 7 4 12 17 12 13
0 20 -5 18 -12z"/>
<path d="M3322 408 c-27 -27 -7 -78 29 -78 10 0 21 5 24 11 4 6 1 10 -6 8 -25
-3 -39 1 -39 11 0 6 14 10 30 10 33 0 38 11 14 34 -19 19 -36 20 -52 4z m48
-18 c0 -5 -9 -10 -20 -10 -11 0 -20 5 -20 10 0 6 9 10 20 10 11 0 20 -4 20
-10z"/>
<path d="M3410 374 c0 -24 5 -44 10 -44 6 0 10 16 10 36 0 28 3 35 18 32 10
-2 19 -16 24 -38 6 -32 6 -31 5 10 -2 43 -3 45 -34 47 -33 1 -33 1 -33 -43z"/>
<path d="M3820 376 c0 -25 5 -46 10 -46 6 0 10 18 10 39 0 22 -4 43 -10 46 -6
4 -10 -12 -10 -39z"/>
<path d="M3970 406 c-28 -35 11 -93 48 -70 35 22 22 84 -18 84 -10 0 -23 -7
-30 -14z m50 -31 c0 -18 -5 -25 -20 -25 -15 0 -20 7 -20 25 0 18 5 25 20 25
15 0 20 -7 20 -25z"/>
</g>
</svg>
